<?xml version="1.0" encoding="utf-8"?>
<!-- Generator: Adobe Illustrator 24.2.3, SVG Export Plug-In . SVG Version: 6.00 Build 0)  -->
<svg version="1.1" id="Layer_1" xmlns="http://www.w3.org/2000/svg" xmlns:xlink="http://www.w3.org/1999/xlink" x="0px" y="0px"
	 viewBox="0 0 21 14" style="enable-background:new 0 0 21 14;" xml:space="preserve">
<style type="text/css">
	.st0{fill:#7F7F7F;}
	.st1{fill:#7A7A7A;}
	.st2{fill:#CDCDCD;}
	.st3{fill:#747474;}
	.st4{fill:#6A6A6A;}
	.st5{fill:#EFEFEF;}
	.st6{fill:#DCDCDC;}
</style>
<path class="st0" d="M20.9,14H0.2C0.1,14,0,13.9,0,13.8c0,0,0,0,0,0V0.2C0,0.1,0.1,0,0.2,0c0,0,0,0,0,0h20.7C21,0,21,0.1,21,0.2l0,0
	v13.6C21,13.9,21,14,20.9,14C20.9,14,20.9,14,20.9,14z"/>
<path class="st1" d="M19.8,0v14h1.1c0.1,0,0.2-0.1,0.2-0.2l0,0V0.2C21,0.1,20.9,0,20.9,0l0,0H19.8z"/>
<path class="st2" d="M2.9,6.8l7.5-5.3c0.1,0,0.1,0,0.2,0l7.5,5.3c0.1,0.1,0.1,0.2,0,0.2c0,0,0,0,0,0l-7.5,5.3c-0.1,0-0.1,0-0.2,0
	L2.9,7.1C2.8,7.1,2.8,7,2.9,6.8C2.9,6.9,2.9,6.9,2.9,6.8z"/>
<ellipse class="st3" cx="10.5" cy="7" rx="3" ry="3"/>
<path class="st4" d="M10.5,3.9c-0.2,0-0.4,0-0.6,0.1c1.6,0.3,2.7,2,2.3,3.6C12,8.8,11.1,9.7,9.9,10c1.6,0.3,3.3-0.7,3.6-2.3
	C13.8,6,12.8,4.3,11.1,4C10.9,4,10.7,3.9,10.5,3.9z"/>
<path class="st5" d="M7.5,6.4l5.9,1.5c0.1-0.3,0.2-0.6,0.2-1c0-0.1,0-0.2,0-0.3L8,5.2C7.8,5.6,7.6,6,7.5,6.4z"/>
<path class="st6" d="M12.2,7.6l1.2,0.3c0.1-0.3,0.2-0.6,0.2-1c0-0.1,0-0.2,0-0.3l-1.3-0.3C12.3,6.8,12.3,7.2,12.2,7.6L12.2,7.6z"/>
</svg>
