<svg xmlns="http://www.w3.org/2000/svg" width="21.026" height="13.961" viewBox="0 0 21.026 13.961"><path d="M20.862,99.981H.164A.164.164,0,0,1,0,99.817V86.184a.164.164,0,0,1,.164-.164h20.7a.164.164,0,0,1,.164.164V99.817A.164.164,0,0,1,20.862,99.981Z" transform="translate(0 -86.02)" fill="#4ba543"/><path d="M481.095,86.02V99.981h1.1a.164.164,0,0,0,.164-.164V86.184a.164.164,0,0,0-.164-.164Z" transform="translate(-461.338 -86.02)" fill="#43a047"/><path d="M68.48,129.27l7.54-5.257a.164.164,0,0,1,.188,0l7.54,5.257a.164.164,0,0,1,0,.269l-7.54,5.257a.164.164,0,0,1-.188,0l-7.54-5.257A.164.164,0,0,1,68.48,129.27Z" transform="translate(-65.6 -122.424)" fill="#fece3f"/><ellipse cx="3.046" cy="3.046" rx="3.046" ry="3.046" transform="translate(7.467 3.935)" fill="#2387eb"/><path d="M241.182,181.827a3.057,3.057,0,0,0-.635.067,3.046,3.046,0,0,1,0,5.959,3.046,3.046,0,1,0,.635-6.026Z" transform="translate(-230.668 -177.892)" fill="#207bd6"/><path d="M183.12,214.65,189,216.178a3.041,3.041,0,0,0,.156-.963,3.077,3.077,0,0,0-.016-.312l-5.525-1.435A3.029,3.029,0,0,0,183.12,214.65Z" transform="translate(-175.6 -208.234)" fill="#efefef"/><path d="M297.539,241.344l1.184.307a3.042,3.042,0,0,0,.156-.963,3.076,3.076,0,0,0-.016-.312l-1.324-.344a3.063,3.063,0,0,1,0,1.311Z" transform="translate(-285.32 -233.708)" fill="#dcdcdc"/></svg>