<svg xmlns="http://www.w3.org/2000/svg" width="15" height="11.426" viewBox="0 0 15 11.426"><g transform="translate(0 -61)"><g transform="translate(0.748 61)"><path d="M38.66,61H26.286a1.313,1.313,0,0,0-.565.131L32.444,67.8l1.507-1.436h0l5.275-5.23A1.313,1.313,0,0,0,38.66,61Z" transform="translate(-25.721 -61)" fill="#fcf8f9"/></g><g transform="translate(9.947 61.748)"><path d="M343.135,86.728l-4.922,4.965,4.922,4.965a1.314,1.314,0,0,0,.131-.565v-8.8A1.313,1.313,0,0,0,343.135,86.728Z" transform="translate(-338.213 -86.728)" fill="#fcf8f9"/></g><g transform="translate(0 61.748)"><path d="M.131,86.721A1.314,1.314,0,0,0,0,87.286v8.8a1.314,1.314,0,0,0,.131.565l4.922-4.965Z" transform="translate(0 -86.721)" fill="#fcf8f9"/></g><g transform="translate(0.748 67.372)"><path d="M34.255,277.211l-1.507,1.436a.442.442,0,0,1-.622,0l-1.448-1.436-4.964,4.922a1.313,1.313,0,0,0,.565.131H38.653a1.313,1.313,0,0,0,.565-.131Z" transform="translate(-25.714 -277.211)" fill="#fcf8f9"/></g></g></svg>