<svg xmlns="http://www.w3.org/2000/svg" width="16.235" height="16.235" viewBox="0 0 16.235 16.235"><path d="M13.881,2.333A8.214,8.214,0,0,0,8.148,0a8.059,8.059,0,0,0-7,12.067L0,16.235l4.285-1.118a8.5,8.5,0,0,0,3.867.979A8.056,8.056,0,0,0,13.871,2.36Z" fill="#eceff1"/><path d="M8.852,15.35H8.837a6.816,6.816,0,0,1-3.663-1.078l-2.537.66.68-2.466-.162-.254a6.7,6.7,0,1,1,5.7,3.139Z" transform="translate(-0.689 -0.636)" fill="#4caf50"/><path d="M13.776,11.733l-.006.051c-.2-.1-1.2-.586-1.38-.653-.415-.154-.3-.024-1.094.888-.118.132-.236.142-.437.051a5.49,5.49,0,0,1-1.626-1,6.137,6.137,0,0,1-1.123-1.4c-.2-.342.216-.391.594-1.105A.372.372,0,0,0,8.688,8.2c-.051-.1-.455-1.1-.624-1.492s-.329-.345-.455-.345a1.007,1.007,0,0,0-.925.233c-1.092,1.2-.816,2.438.118,3.754,1.836,2.4,2.814,2.845,4.6,3.459a2.8,2.8,0,0,0,1.272.082,2.082,2.082,0,0,0,1.364-.965,1.674,1.674,0,0,0,.122-.964c-.05-.091-.183-.142-.386-.233Z" transform="translate(-1.934 -2.055)" fill="#fafafa"/></svg>