<svg xmlns="http://www.w3.org/2000/svg" width="15" height="13.865" viewBox="0 0 15 13.865"><g transform="translate(-138.867 -141.863)"><path d="M141.85,141.863h-.707a1.358,1.358,0,0,0-.984.46,4.118,4.118,0,0,0-1.292,3.068,7.144,7.144,0,0,0,1.507,3.8c.185.245,2.553,4.078,6.3,5.552,3.118,1.225,3.752.982,4.429.92a3.727,3.727,0,0,0,2.491-1.748,3.066,3.066,0,0,0,.215-1.749c-.092-.153-.339-.245-.708-.429s-2.178-1.089-2.516-1.212-.584-.184-.83.185-.971,1.218-1.186,1.464-.431.276-.8.092a10.2,10.2,0,0,1-2.955-1.833,11.308,11.308,0,0,1-2.074-2.587c-.215-.368-.023-.567.162-.751.166-.165.39-.39.574-.6a2.487,2.487,0,0,0,.36-.614.675.675,0,0,0-.031-.644c-.092-.184-.8-2-1.129-2.73h0C142.4,141.895,142.113,141.874,141.85,141.863Zm0,0" fill="#fcf8f9"/></g></svg>