<svg xmlns="http://www.w3.org/2000/svg" width="15" height="15" viewBox="0 0 15 15"><path d="M10.5,3c-2.037,0-2.292.009-3.092.045a5.519,5.519,0,0,0-1.82.349A3.833,3.833,0,0,0,3.393,5.587a5.53,5.53,0,0,0-.349,1.82C3.008,8.208,3,8.463,3,10.5s.008,2.292.045,3.092a5.519,5.519,0,0,0,.349,1.82,3.832,3.832,0,0,0,2.194,2.194,5.53,5.53,0,0,0,1.82.349c.8.036,1.055.045,3.092.045s2.292-.009,3.092-.045a5.519,5.519,0,0,0,1.82-.349,3.832,3.832,0,0,0,2.194-2.194,5.53,5.53,0,0,0,.349-1.82c.036-.8.045-1.055.045-3.092s-.009-2.292-.045-3.092a5.519,5.519,0,0,0-.349-1.82,3.832,3.832,0,0,0-2.194-2.194,5.53,5.53,0,0,0-1.82-.349C12.791,3.009,12.536,3,10.5,3m0,1.351c2,0,2.239.007,3.03.043a4.167,4.167,0,0,1,1.393.258,2.483,2.483,0,0,1,1.423,1.423A4.162,4.162,0,0,1,16.6,7.469c.036.791.043,1.027.043,3.031s-.007,2.239-.043,3.03a4.193,4.193,0,0,1-.258,1.393,2.483,2.483,0,0,1-1.423,1.423,4.162,4.162,0,0,1-1.392.258c-.79.036-1.027.043-3.031.043s-2.24-.007-3.03-.043a4.193,4.193,0,0,1-1.393-.258,2.483,2.483,0,0,1-1.423-1.423,4.136,4.136,0,0,1-.258-1.392c-.036-.791-.043-1.027-.043-3.031s.007-2.239.043-3.03a4.167,4.167,0,0,1,.258-1.393A2.483,2.483,0,0,1,6.076,4.653a4.136,4.136,0,0,1,1.392-.258C8.26,4.359,8.5,4.351,10.5,4.351M10.5,13A2.5,2.5,0,1,1,13,10.5,2.5,2.5,0,0,1,10.5,13m0-6.351A3.851,3.851,0,1,0,14.35,10.5,3.851,3.851,0,0,0,10.5,6.649M15.4,6.5a.9.9,0,1,1-.9-.9.9.9,0,0,1,.9.9" transform="translate(-3 -3)" fill="#fcf8f9" fill-rule="evenodd"/></svg>