<svg xmlns="http://www.w3.org/2000/svg" width="17.288" height="17.419" viewBox="0 0 17.288 17.419"><path d="M6.862,19.229c-1.868-3.828-2.98-6.141-2.98-6.2,0-.094.114-.081,1.237.139a21.337,21.337,0,0,0,4.788.5A12.655,12.655,0,0,0,15.6,12.56a4.612,4.612,0,0,0,1.631-1.209A2.3,2.3,0,0,0,17.86,9.7a3.387,3.387,0,0,0-.451-1.758,3.609,3.609,0,0,1-.287-.788c-.019-.2,0-.229.145-.246.323-.038,1.916,1.508,2.5,2.429a4.762,4.762,0,0,1,.237,4.967,7.473,7.473,0,0,1-2.08,2.53,16.168,16.168,0,0,1-6.091,3.009,29.147,29.147,0,0,1-4.112.889c-.1,0-.283-.323-.859-1.5Zm1.254.73-.533-1.093c-.569-1.168-.73-1.578-.621-1.578.041,0,.057-.053.038-.117s-.008-.131.027-.149c.209-.108-.044-.792-.426-1.156a.677.677,0,0,1-.25-.49,4.7,4.7,0,0,0-.48-1.389c-.113-.214-.139-.318-.083-.334s-.154-.07-.442-.128a3.33,3.33,0,0,1-.61-.163c-.048-.031-.088-.047-.088-.034,0,.152,3.36,6.7,3.438,6.7.035,0,.048-.033.029-.073Zm-.734-6.9C5.568,12.82,4.044,12.615,4,12.6a7.473,7.473,0,0,1-.532-1.772c-.041-.2-.1-.723-.134-1.168A5.512,5.512,0,0,1,4.772,5.075C6.73,2.99,10.92,2.736,15.649,4.416c.83.3,1.159.5,1.007.628a7.115,7.115,0,0,1-2.2,0c-2.065-.152-3.636.135-4.446.814-1.233,1.032-1.045,3.3.546,6.56.172.353.346.7.386.77.092.162.025.312-.135.3-.068,0-1.609-.2-3.424-.433Zm2.967,0a.168.168,0,0,0-.134,0c-.055.018-.039.032.042.036S10.373,13.07,10.35,13.05Zm-.381-.062c-.168-.057-5.773-.82-5.829-.794-.031.015-.04.042-.018.059.044.038,5.5.758,5.759.762.1,0,.135-.011.088-.027ZM7.736,12.4a.315.315,0,0,0-.174,0c-.048.016-.009.029.088.029s.135-.013.088-.029Zm-1.517-.228c-.69-.108-1.378-.217-1.529-.243-.227-.038-.289-.081-.366-.25l-.092-.2.045.2a2.219,2.219,0,0,1,.046.268,7.183,7.183,0,0,0,1.367.241C7.5,12.43,7.781,12.422,6.219,12.177Zm7.253-.9A4.275,4.275,0,0,1,10.3,9.093a1.922,1.922,0,0,1,.023-1.523,2.458,2.458,0,0,1,1.149-.921,4.563,4.563,0,0,1,3.02.258,4.125,4.125,0,0,1,2.013,1.782,1.722,1.722,0,0,1-.759,2.254,4.144,4.144,0,0,1-2.276.336Zm-.756-.681a1.863,1.863,0,0,0-.515-.174,3.49,3.49,0,0,0,.924.381C13.162,10.8,12.978,10.711,12.716,10.6Zm-.743-.6c-.211-.157-.533-.425-.714-.6s-.331-.285-.332-.253a4.674,4.674,0,0,0,1.383,1.136,1.47,1.47,0,0,0-.338-.286Z" transform="translate(-3.304 -3.313)" fill="#e0bba8"/></svg>