<svg xmlns="http://www.w3.org/2000/svg" viewBox="0 0 183 80"><defs><style>.cls-1{fill:#fcf7f8;}</style></defs><g id="Layer_3" data-name="Layer 3"><path class="cls-1" d="M8.47,61.23c0,1.75-1.56,3-4,3a9.36,9.36,0,0,1-3.68-.74.74.74,0,0,1-.44-.64A.63.63,0,0,1,1,62.22a.83.83,0,0,1,.29.06,7.43,7.43,0,0,0,3.05.64c1.53,0,2.71-.43,2.71-1.78,0-2.29-6.58-1-6.58-4.83,0-1.71,1.39-3.17,4-3.17a8.89,8.89,0,0,1,3.08.51.62.62,0,0,1,.43.62.63.63,0,0,1-.62.65.76.76,0,0,1-.25-.06,7.45,7.45,0,0,0-2.49-.42c-1.56,0-2.75.61-2.75,1.77C1.91,58.88,8.47,57.15,8.47,61.23Z"/><path class="cls-1" d="M21.3,63.44a.65.65,0,0,1-.67.65h-6.2a.69.69,0,0,1-.7-.69V54a.7.7,0,0,1,.7-.71h6.2a.66.66,0,0,1,.67.66.65.65,0,0,1-.67.65H15.14V58h4.94a.66.66,0,0,1,.66.67.64.64,0,0,1-.66.65H15.14v3.43h5.49A.66.66,0,0,1,21.3,63.44Z"/><path class="cls-1" d="M35.12,63.48a.69.69,0,0,1-.7.69.66.66,0,0,1-.71-.69V63c0-1-.06-3.12-2.4-3.12h-3.2v3.59a.7.7,0,0,1-.71.69.69.69,0,0,1-.7-.69V54a.7.7,0,0,1,.7-.71H31c2.94,0,4.21,1.36,4.21,3.14a2.9,2.9,0,0,1-2,2.8c1.72.45,1.94,2.66,1.94,3.52ZM33.8,56.55c0-1.15-.68-1.92-3-1.92H28.11v3.93h2.8C32.64,58.56,33.8,57.86,33.8,56.55Z"/><path class="cls-1" d="M49.72,58.91v3.51a1,1,0,0,1-.58,1,7.85,7.85,0,0,1-3.55.87,5.24,5.24,0,0,1-5.43-5.54,5.3,5.3,0,0,1,5.39-5.57,6.72,6.72,0,0,1,3.85,1.12.64.64,0,0,1-.34,1.19.73.73,0,0,1-.33-.08,5.66,5.66,0,0,0-3-.87,3.92,3.92,0,0,0-4.13,4.21,4,4,0,0,0,4.21,4.21,5.76,5.76,0,0,0,2.71-.68v-2.8H45.93a.64.64,0,0,1,0-1.27h3A.73.73,0,0,1,49.72,58.91Z"/><path class="cls-1" d="M56.83,53.93v9.55a.7.7,0,0,1-.71.69.69.69,0,0,1-.7-.69V53.93a.71.71,0,0,1,.7-.71A.72.72,0,0,1,56.83,53.93Z"/><path class="cls-1" d="M73.14,58.7c-.07,3.23-2.14,5.55-5.43,5.55s-5.37-2.32-5.43-5.55,2.12-5.56,5.43-5.56S73.07,55.46,73.14,58.7Zm-1.41,0a4,4,0,1,0-8,0,4,4,0,1,0,8,0Z"/><path class="cls-1" d="M94.11,63.48a.69.69,0,0,1-.7.69.66.66,0,0,1-.71-.69V63c0-1-.06-3.12-2.4-3.12H87.1v3.59a.71.71,0,0,1-.71.69.69.69,0,0,1-.7-.69V54a.7.7,0,0,1,.7-.71H90c2.94,0,4.21,1.36,4.21,3.14a2.9,2.9,0,0,1-2,2.8c1.72.45,1.94,2.66,1.94,3.52Zm-1.32-6.93c0-1.15-.68-1.92-3-1.92H87.1v3.93h2.8C91.63,58.56,92.79,57.86,92.79,56.55Z"/><path class="cls-1" d="M108.7,63.48a.66.66,0,0,1-.7.69.69.69,0,0,1-.66-.43l-1-2.41h-5.26l-1,2.41a.71.71,0,0,1-.67.43.66.66,0,0,1-.69-.69.87.87,0,0,1,.07-.31l4-9.32a1,1,0,0,1,.89-.63h.16a1,1,0,0,1,.9.63l3.94,9.32A.71.71,0,0,1,108.7,63.48ZM105.79,60l-2.09-5-2.09,5Z"/><path class="cls-1" d="M125.63,54.24v9.24a.69.69,0,0,1-.7.69.7.7,0,0,1-.71-.69V54.69l-3.57,8.83a1.08,1.08,0,0,1-2,0l-3.58-8.83v8.79a.7.7,0,0,1-.71.69.69.69,0,0,1-.69-.69V54.24a1,1,0,0,1,1-1h.51a1,1,0,0,1,.94.65l3.52,8.75,3.51-8.75a1,1,0,0,1,.94-.65h.51A1,1,0,0,1,125.63,54.24Z"/><path class="cls-1" d="M140.62,63.48a.66.66,0,0,1-.69.69.7.7,0,0,1-.67-.43l-1-2.41H133l-1,2.41a.69.69,0,0,1-.66.43.66.66,0,0,1-.7-.69.71.71,0,0,1,.08-.31l3.94-9.32a1,1,0,0,1,.9-.63h.15a1,1,0,0,1,.9.63l3.94,9.32A.71.71,0,0,1,140.62,63.48ZM137.71,60l-2.08-5-2.09,5Z"/><path class="cls-1" d="M152.79,63.4a.71.71,0,0,1-.71.69h-5.5a1,1,0,0,1-1-1V53.93a.71.71,0,0,1,.7-.71.73.73,0,0,1,.71.71v8.76h5.06A.72.72,0,0,1,152.79,63.4Z"/><path class="cls-1" d="M166.29,53.93v9.55a.7.7,0,0,1-.71.69.69.69,0,0,1-.69-.69V59.36H159v4.12a.71.71,0,0,1-.72.69.69.69,0,0,1-.69-.69V53.93a.71.71,0,0,1,.69-.71.73.73,0,0,1,.72.71v4.12h5.86V53.93a.71.71,0,0,1,.69-.71A.72.72,0,0,1,166.29,53.93Z"/><path class="cls-1" d="M182.61,58.7c-.07,3.23-2.14,5.55-5.43,5.55s-5.37-2.32-5.43-5.55,2.12-5.56,5.43-5.56S182.54,55.46,182.61,58.7Zm-1.41,0a4,4,0,1,0-8,0,4,4,0,1,0,8,0Z"/><path class="cls-1" d="M37.62,73.19a1.15,1.15,0,0,0-.92.42,2.72,2.72,0,0,0-.51,1.11A6.41,6.41,0,0,0,36,76.21a4.51,4.51,0,0,0,.45,2.2,1.34,1.34,0,0,0,1.2.8,2.22,2.22,0,0,0,.59-.07,3.33,3.33,0,0,0,.52-.21v.79a2.49,2.49,0,0,1-1.21.28,1.93,1.93,0,0,1-1.3-.46,2.9,2.9,0,0,1-.85-1.3,6.1,6.1,0,0,1-.3-2,6.34,6.34,0,0,1,.27-1.91,3.07,3.07,0,0,1,.82-1.37,1.93,1.93,0,0,1,1.38-.51,2.7,2.7,0,0,1,1.38.37l-.31.73a3.12,3.12,0,0,0-.49-.23A1.63,1.63,0,0,0,37.62,73.19Z"/><path class="cls-1" d="M49.14,79.89l-.54-2.3H46.87l-.53,2.3h-.93l1.79-7.37h1l1.81,7.37Zm-.71-3.1-.54-2.42c0-.19-.07-.38-.1-.56s-.06-.34-.08-.5a8.78,8.78,0,0,1-.17,1L47,76.79Z"/><path class="cls-1" d="M58.3,72.52A2.33,2.33,0,0,1,60,73a2,2,0,0,1,.53,1.56,2.55,2.55,0,0,1-.26,1.23,1.7,1.7,0,0,1-.86.76l1.49,3.3h-1L58.6,76.81h-.73v3.08H57V72.52Zm0,.79h-.44v2.77h.54a1.13,1.13,0,0,0,.9-.36,1.6,1.6,0,0,0,.32-1.08,1.14,1.14,0,0,0-1.32-1.33Z"/><path class="cls-1" d="M72,76.12a5,5,0,0,1-.66,2.82,2.18,2.18,0,0,1-1.93,1H68V72.52h1.55a2.15,2.15,0,0,1,1.87.92A4.65,4.65,0,0,1,72,76.12Zm-.91,0c0-1.91-.55-2.86-1.64-2.86h-.65v5.82h.58a1.37,1.37,0,0,0,1.3-.75A4.77,4.77,0,0,0,71.12,76.16Z"/><path class="cls-1" d="M81.29,79.89H79.08V79.4l.67-.18v-6L79.08,73v-.5h2.21V73l-.67.17v6l.67.18Z"/><path class="cls-1" d="M93,76.2a7.54,7.54,0,0,1-.23,1.92A3,3,0,0,1,92,79.49a1.82,1.82,0,0,1-1.35.51,1.9,1.9,0,0,1-1.08-.3,2.13,2.13,0,0,1-.72-.82,4.17,4.17,0,0,1-.41-1.22,8.58,8.58,0,0,1-.12-1.47q0-3.76,2.33-3.77a1.82,1.82,0,0,1,1.35.51,3,3,0,0,1,.75,1.36A7.52,7.52,0,0,1,93,76.2Zm-3.76,0a5.21,5.21,0,0,0,.37,2.24,1.13,1.13,0,0,0,1.05.76c.95,0,1.42-1,1.42-3s-.47-3-1.41-3a1.14,1.14,0,0,0-1.07.76A5.43,5.43,0,0,0,89.26,76.2Z"/><path class="cls-1" d="M100.47,79.89V72.52h.87v6.59h2v.78Z"/><path class="cls-1" d="M114.79,76.2a7.12,7.12,0,0,1-.23,1.92,2.92,2.92,0,0,1-.74,1.37,1.82,1.82,0,0,1-1.35.51,1.86,1.86,0,0,1-1.08-.3,2.24,2.24,0,0,1-.73-.82,4.16,4.16,0,0,1-.4-1.22,8.58,8.58,0,0,1-.12-1.47c0-2.51.77-3.77,2.33-3.77a1.82,1.82,0,0,1,1.35.51,2.88,2.88,0,0,1,.74,1.36A7.09,7.09,0,0,1,114.79,76.2Zm-3.76,0a5.37,5.37,0,0,0,.37,2.24,1.15,1.15,0,0,0,1.06.76q1.41,0,1.41-3c0-2-.46-3-1.4-3a1.16,1.16,0,0,0-1.08.76A5.43,5.43,0,0,0,111,76.2Z"/><path class="cls-1" d="M124.67,76h1.89v3.64a5.29,5.29,0,0,1-1.93.36,2.19,2.19,0,0,1-1.48-.5,3,3,0,0,1-.86-1.37,6.14,6.14,0,0,1-.28-1.94,5.54,5.54,0,0,1,.31-2,2.9,2.9,0,0,1,.92-1.34,2.46,2.46,0,0,1,1.56-.48,3.18,3.18,0,0,1,1.68.47l-.31.74a2.48,2.48,0,0,0-1.35-.44,1.59,1.59,0,0,0-1.42.77,4.3,4.3,0,0,0-.48,2.25,6,6,0,0,0,.18,1.53,2.34,2.34,0,0,0,.58,1.08,1.4,1.4,0,0,0,1,.39,3.13,3.13,0,0,0,1-.15V76.78h-1Z"/><path class="cls-1" d="M135.88,79.89h-2.21V79.4l.67-.18v-6l-.67-.17v-.5h2.21V73l-.68.17v6l.68.18Z"/><path class="cls-1" d="M146.16,79.89l-.54-2.3H143.9l-.54,2.3h-.93l1.79-7.37h1l1.82,7.37Zm-.7-3.1-.55-2.42c0-.19-.07-.38-.1-.56s-.05-.34-.07-.5q-.06.5-.18,1L144,76.79Z"/><path class="cls-1" d="M92.05,4.27c0-.34.09-.67.1-1,0-.7,0-1.39-.06-2.08,0-.16,0-.21.19-.23.72-.09.86,0,.76.74-.07.46-.17.92-.26,1.38a.54.54,0,0,0,.26.63,4.37,4.37,0,0,1,1.83,3,4,4,0,0,1,.07.48.46.46,0,0,1-.07.27,6.26,6.26,0,0,0-1.08-2.65l-.12,0c.16.39.34.78.48,1.18s.28.91.42,1.36a.26.26,0,0,1-.06.2,5.84,5.84,0,0,0-.76-1.73l-.08,0a4.75,4.75,0,0,0,.14.54c.13.36.27.71.39,1.07,0,.06,0,.16-.07.24-.36-.59-.38-1.32-.9-1.79l-.08,0c.23.61.47,1.21.71,1.83l-.2.08a8.11,8.11,0,0,0-.73-1.29c-.07.54.3.92.49,1.37-.14.15-.22.12-.32,0a5.17,5.17,0,0,0-.42-.51l-.09.07.41.7a2.66,2.66,0,0,0-.27.17,4,4,0,0,0-.2-.35l-.11.05c.09.28.12.55-.23.7A3.27,3.27,0,0,1,92,7.2a8,8,0,0,0,.08-1.09,2.73,2.73,0,0,0-.43,2.36,1.81,1.81,0,0,0,1.09,1.28.79.79,0,0,0,.34,0,1.14,1.14,0,0,0-.16-.31c-.15-.14-.32-.25-.49-.38a13.35,13.35,0,0,1,6.71-1.76,2.81,2.81,0,0,0-.49.09c-.17,0-.33.1-.5.15,0,0,0,0,0,.09H99a.19.19,0,0,0,0,.07c-.4.18-.92,0-1.26.36v.09L98.83,8c0,.18,0,.24-.21.25a5,5,0,0,0-.74.12.8.8,0,0,0-.23.16l0,.08,1.06-.09c.08.17,0,.23-.14.26-.33,0-.67.06-1,.13a5.58,5.58,0,0,0-.74.28l0,.11L98.74,9v.42a2.33,2.33,0,0,0-1.69.26,2.87,2.87,0,0,0,.42.05c.38,0,.76,0,1.13,0s.3.06.3.29a7.11,7.11,0,0,0-4.78,1.87,6.19,6.19,0,0,0-2.2,4.58h-.09a1.94,1.94,0,0,1-.14-.45A3.61,3.61,0,0,1,92,14.47a5.36,5.36,0,0,1,.89-1.92c.35-.41.75-.78,1.13-1.16a5.07,5.07,0,0,0,.36-.45c-1.89,1-2.58,2.76-3,4.69-.36-.13-.38-.45-.24-1a7.66,7.66,0,0,1,.58-1.28c.18-.36.37-.72.53-1.1a5,5,0,0,0-1.46,2.81.35.35,0,0,1-.22-.47,5.13,5.13,0,0,1,1-2.13,9.19,9.19,0,0,0,.6-.92,3.75,3.75,0,0,0-1.25,1.37c-.25.55-.43,1.14-.64,1.71-.18-.05-.19-.05-.14-.26l.42-1.45c0-.08,0-.16.06-.28-.34.23-.44.5-.75,1.87h-.13l-.18-.05L90,12.88l-.1,0a3,3,0,0,0-.58,1.59h-.5l.67-1.56c-.36.17-.61.63-.87,1.54h-.34q.07-.28.15-.54l.18-.52-.08,0a1.8,1.8,0,0,0-.26.3,1.16,1.16,0,0,0-.17.47c0,.33-.19.45-.51.47l.34-1-.08,0a1.62,1.62,0,0,0-.46.93c-.07.38-.31.54-.64.73a3.51,3.51,0,0,1,.5-1.26c.24-.4.54-.79.74-1.21s.41-1.15.61-1.73c.1-.3.15-.61.26-.9a1.49,1.49,0,0,1,1.59-1,.9.9,0,0,1,.44.23,1.21,1.21,0,0,0-1.35.22A2.14,2.14,0,0,0,89,10.61l.08.06c.16-.2.32-.39.46-.6a.84.84,0,0,1,1.2-.42s.06.06.1.11c-.66,0-1,.23-1,.67.34,0,.51-.55,1-.31a1.18,1.18,0,0,0,0,.27.22.22,0,0,0,.14.17s.13,0,.16-.09a.57.57,0,0,0,.11-.28c0-.72.14-1.44.11-2.15a2.25,2.25,0,0,0-1.2-1.94c.12.25.22.51.36.74a2.78,2.78,0,0,1,.43,1.89c-.11,0-.21-.05-.32-.06A1.91,1.91,0,0,0,88.4,9.93c-.16.44-.27.91-.43,1.43a3.18,3.18,0,0,1,.2-1.75c.25-.52.59-1,.91-1.52a2.82,2.82,0,0,0-.42.23,2.75,2.75,0,0,0-.82,1.46,3,3,0,0,0,0,1.89c0,.12,0,.29,0,.46a1.93,1.93,0,0,1-.38-1.29c0-.44.06-.88.08-1.33a1.19,1.19,0,0,0-.33.79,2.92,2.92,0,0,0,.37,2,.27.27,0,0,1,0,.26,4.85,4.85,0,0,1-.73-1.85,4.78,4.78,0,0,1,.15-2,2.26,2.26,0,0,0-.45,1.17,4.93,4.93,0,0,0,.56,2.47,1.35,1.35,0,0,0,.15.26.31.31,0,0,1-.08.52c-.18-.41-.37-.82-.55-1.22l-.08,0a.76.76,0,0,0,0,.26,5.14,5.14,0,0,0,.38.94.43.43,0,0,1-.09.58,11.82,11.82,0,0,1-.94-2.48A2.26,2.26,0,0,0,86,12.71c.16.47.38.91.58,1.36l-.08.06a2.31,2.31,0,0,1-.37-.4,11.48,11.48,0,0,1-.83-2.67,12,12,0,0,1-.17-1.34,4.48,4.48,0,0,1,.06-.62.57.57,0,0,0-.06-.28,1.24,1.24,0,0,0-.25.86A8.1,8.1,0,0,0,85.07,11a9.78,9.78,0,0,0,1,3.11.81.81,0,0,0,.12.18.4.4,0,0,1,.08.6,7.41,7.41,0,0,1-1.56-3.75l-.12,0a.5.5,0,0,0,0,.17A4.7,4.7,0,0,0,85.36,14c.24.37.48.73.72,1.11,0,.06,0,.16,0,.24l-.1,0A14,14,0,0,1,85,13.66a10.69,10.69,0,0,1-.9-2.84,5.17,5.17,0,0,1,.39-2.93c0-.12.08-.25.13-.37s0,0-.06,0-.12.08-.15.14a4.36,4.36,0,0,0-.63,2.73,10.78,10.78,0,0,0,1.13,3.83l-.06.07L84.67,14a7.44,7.44,0,0,1-1-2.25c0-.2-.09-.4-.14-.6a5.16,5.16,0,0,1,0-2.73A9.53,9.53,0,0,1,86.33,4a1.42,1.42,0,0,1,.25-.24c.44-.29.42-.7.33-1.15-.13-.63-.24-1.25-.34-1.88,0-.08,0-.21.1-.23.45-.15.9-.3,1.36-.41.08,0,.24.1.29.2a7.14,7.14,0,0,1,.7,2.4c0,.07,0,.21.1.21a.28.28,0,0,0,.24-.09c.21-.33.4-.66.58-1A11,11,0,0,0,90.51.69.46.46,0,0,1,91,.35c.11,0,.23,0,.35,0s.24.1.25.28c.06.87.12,1.74.19,2.61,0,.34.08.67.12,1Zm-6,.43,1.35-.86a.31.31,0,0,0,.11-.23,3,3,0,0,0,0-.52c-.08-.59-.16-1.19-.26-1.78A3.46,3.46,0,0,0,87.1.78H87a1.71,1.71,0,0,0,0,.31c.09.73.19,1.46.29,2.19a.39.39,0,0,1-.26.48A1.87,1.87,0,0,0,86.05,4.7Zm-.62,2.05-.07,0c-.85.85-1.35,3.49-.68,3.94,0-.33-.06-.62-.08-.91a4.36,4.36,0,0,1,.57-2.37C85.27,7.18,85.34,7,85.43,6.75Zm8,2.58,0,.08L97.38,8A9,9,0,0,0,93.43,9.33ZM94,8.71l3.22-1A5.39,5.39,0,0,0,94,8.71Zm-6.33,0,.07.06A3.58,3.58,0,0,1,88,8.42a2.13,2.13,0,0,1,.54-.54,10.61,10.61,0,0,1,1.33-.39l.31-.08s0-.06,0-.09a2.15,2.15,0,0,0-1.77.35A1.66,1.66,0,0,0,87.69,8.73Zm-3-1.79.07,0,1-1.78A2.68,2.68,0,0,0,84.68,6.94ZM89,3.44c.54.08,1-.57,1.1-1.39C89.78,2.57,89.62,3.17,89,3.44Zm7.15,6.64a1.85,1.85,0,0,0-1.24.34,1.27,1.27,0,0,0,0,.14c.06,0,.14,0,.19,0,.24-.09.47-.19.69-.29A3.93,3.93,0,0,0,96.19,10.08ZM92.52,4.42l.86.94C93.3,4.79,93,4.43,92.52,4.42ZM88,13c.4-.18.72-.77.61-1Zm4.61-1.25.07.06.55-.63-.06-.05A.72.72,0,0,0,92.61,11.79ZM90.78.81a.73.73,0,0,0-.29.74A.68.68,0,0,0,90.78.81Zm2.59,3.82a.45.45,0,0,0-.5-.56C93.05,4.27,93.2,4.45,93.37,4.63Zm-7.24,1-.08,0c-.21.07-.27.28-.36.46a.12.12,0,0,0,0,.11.16.16,0,0,0,.12,0Zm1,2.42a.56.56,0,0,0,.54-.56Zm-1.8-.34a.5.5,0,0,0-.15.53s.08,0,.13,0c0-.17.05-.35.07-.53Zm8.21,1.12a1.34,1.34,0,0,0-.06-.12L93,9l.06.1A.73.73,0,0,0,93.58,8.88ZM89,11.09l-.17,0c0,.21-.08.41-.13.62l.13,0C88.93,11.5,89,11.29,89,11.09Zm1.75,1c.28.05.39-.09.36-.4Zm-.8-4c0-.06,0-.1,0-.15l-.35,0v.13Zm4,2.57-.08-.11a2.92,2.92,0,0,0-.28.21l.07.11Z"/><path class="cls-1" d="M87.26,31a3.71,3.71,0,0,1,.57-2.38A2.49,2.49,0,0,0,87,30.48l-.08,0a3.14,3.14,0,0,1-.12-.51,2.56,2.56,0,0,1,.06-.62c0-.18.11-.36.14-.56a1.36,1.36,0,0,0-.46,1,1,1,0,0,1-.07-1c.14-.32.33-.62.48-.93a1.33,1.33,0,0,0,.17-.47,3.48,3.48,0,0,0-1,1.67.64.64,0,0,1-.12-.71,5.79,5.79,0,0,1,.39-.79,5.28,5.28,0,0,0,.3-.58,2.18,2.18,0,0,0-1,1.54c-.24-.72.21-1.29.41-1.92A2.16,2.16,0,0,0,85.41,28a.79.79,0,0,1-.11-.9c.17-.31.38-.6.57-.89l.4-.57c-.39.05-.94.75-1.32,1.64a.9.9,0,0,1,.06-.79c.19-.31.39-.6.59-.91a1.11,1.11,0,0,0,.16-.35,3.52,3.52,0,0,0-1.18,1.43,1,1,0,0,1,0-.35,3.58,3.58,0,0,1,.45-.73c.44-.5.91-1,1.37-1.46l.19-.22a6.59,6.59,0,0,0-2.36,2.34.91.91,0,0,1,0-.37c.19-.32.41-.63.62-.95l.37-.53c-.31,0-.31,0-1.18,1.28H84a2.06,2.06,0,0,1,.1-.62,3.62,3.62,0,0,1,.48-.63c.18-.21.37-.41.54-.63-.5.12-.76.54-1.1.85l-.07,0a1.86,1.86,0,0,1,.22-.42,5.07,5.07,0,0,1,.64-.58c.57-.45,1.16-.88,1.74-1.33a.6.6,0,0,0,.13-.14,8.31,8.31,0,0,0-2.61,1.7,1.7,1.7,0,0,1,.72-1,1.33,1.33,0,0,0,.72-.75l-.92.53c.26-.58.49-1.09.74-1.61l.94.28c-.12.17-.25.33-.37.49l.06.09c.12-.08.27-.13.38-.22.36-.28.7-.57,1.05-.85a1.92,1.92,0,0,1,.32-.18,2.92,2.92,0,0,0,1.54,1.3c-.29.16-.55.28-.78.43a2.84,2.84,0,0,0-.61.59c.77-.21,1.35-.83,2.17-1-.17.4-.32.76-.48,1.11a.71.71,0,0,1-.26.18l-1.54,1a.5.5,0,0,0-.17.31l1.81-1.1c.11.22,0,.3-.13.39a10.13,10.13,0,0,0-1.36.87A10.27,10.27,0,0,0,86.79,26a.33.33,0,0,0-.07.25c.41-.41.79-.84,1.23-1.21s1-.67,1.48-1.05a6.64,6.64,0,0,1,0,1.41c0,.49-.46.73-.63,1.11,0,0,0,0,0,.06l.38-.27a6.39,6.39,0,0,1,.4.78,3.1,3.1,0,0,1,.1.69.56.56,0,0,1-.26.56,9.83,9.83,0,0,0-1,.85,5.89,5.89,0,0,0-.41.57l.1.07,1.51-1.41a4.1,4.1,0,0,1,0,.57.54.54,0,0,1-.15.23l-.36.37.08.1.53-.34.19.26-.89,1,.1.11,1.05-1c0,.22.08.37.11.53a1.16,1.16,0,0,0,.62.87.36.36,0,0,1,.11.22,1.44,1.44,0,0,0,.37,1c-.4.53-1,.82-1.27,1.46l.07.08,1.44-1.39c.17.19.19.35,0,.53a5.48,5.48,0,0,0-.58.6.89.89,0,0,0-.15.27l.07.06.83-.76a.35.35,0,0,1,0,.51c-.27.29-.51.61-.75.92a2.81,2.81,0,0,0-.19.39l.09.07,1.1-1.3.47.34a.94.94,0,0,1,.06.77,4.93,4.93,0,0,0-.42.66c.36,0,.43-.35.65-.54l.24.22q-.42.63-.84,1.23c0,.05-.08.11-.11.1-.4-.11-.55.16-.71.45-.15-.39.34-.57.33-1-.19.21-.34.36-.47.53s-.14.19-.31.16a1.62,1.62,0,0,0-.53.08l1.46-1.68-.07-.07a4.89,4.89,0,0,0-1.3,1.26l-.47-.48.53-.46-.05-.07c-.48,0-.65.71-1.23.59l1.52-1.41-.1-.1a5.79,5.79,0,0,0-2.15,2.16,1.28,1.28,0,0,1,.31-.8c.37-.35.72-.71,1.07-1.07a.69.69,0,0,0,.15-.28,4.89,4.89,0,0,0-1.78,1.72.46.46,0,0,1-.11-.66,4.55,4.55,0,0,1,.44-.64c.23-.28.49-.54.73-.82a.52.52,0,0,0,.13-.29A4.42,4.42,0,0,0,88,35.46l0,0c-.35-.47-.36-.47,0-1a6.52,6.52,0,0,0,.45-.67c-.45.11-.61.52-.86.85-.25-.26-.34-.7-.77-.7s-.57.34-.72.72c-.22-.61-.48-1.15-1.31-1l.72-.68.18.08.06,0a4.35,4.35,0,0,0-.28-.74,16.07,16.07,0,0,0-1.74-2.59,7.07,7.07,0,0,0-1.3-1.32.71.71,0,0,1-.09-.07c-1.11-.45-2-1.39-3.15-1.69l0,0a2.6,2.6,0,0,1,1.92.55,4.09,4.09,0,0,0,.59.3,2.9,2.9,0,0,0-1.44-1c.46-.16.46-.16.82.13s1,.77,1.52,1.13a6.51,6.51,0,0,0-1.57-1.48l.28-.17.78.78.12-.1-.67-.83c.15-.18.16-.18.3,0,.31.35.62.7.91,1.06a1.32,1.32,0,0,1,.15.29l.14-.13a8,8,0,0,0-1.17-1.5,2.13,2.13,0,0,1,.21-.22c.19.28.36.55.53.81l.11,0c-.13-.24-.25-.48-.39-.71s-.12-.21.08-.39a9.81,9.81,0,0,0,1.09,2.11s0,0,.08,0-.06-.19-.1-.28c-.26-.58-.53-1.16-.79-1.75-.17-.39-.16-.43.2-.76a3.35,3.35,0,0,0,.54,1.51l.08,0c-.08-.24-.12-.49-.22-.72a1.6,1.6,0,0,1,.23-1.78l.37.11a5.25,5.25,0,0,0-.13,2.26,1.6,1.6,0,0,0,.31.71c.38.63.77,1.25,1.17,1.87l.83,1.23c.56.86,1.11,1.73,1.66,2.59a2.18,2.18,0,0,0,.33.35,3.17,3.17,0,0,1,.59-2.24,2.08,2.08,0,0,0-.84,1.45c-.17-.17-.21-.22-.13-1.22a6.75,6.75,0,0,1,.32-1.23C87.56,29.34,87.4,29.78,87.26,31Zm-3-2.16.11,0c.41.64.8,1.29,1.23,1.91s.9,1.22,1.35,1.83l.12-.07c-.23-.45-.42-.9-.69-1.33-.49-.8-1-1.58-1.54-2.37a1.81,1.81,0,0,0-.39-.47.52.52,0,0,0-.42-.06c-.08,0-.15.22-.15.33a1.85,1.85,0,0,0,.13.66,9,9,0,0,0,1,2A20.5,20.5,0,0,1,86.18,33c.1.16.22.31.33.46l.1-.06a7.92,7.92,0,0,0-.33-.8c-.46-.81-1-1.6-1.39-2.42A14.55,14.55,0,0,1,84.29,28.81Zm1.4-4.91,2.59-2A5.07,5.07,0,0,0,85.69,23.9Zm.45,1A12.69,12.69,0,0,0,88.52,23,8.74,8.74,0,0,0,86.14,24.91Zm1.12,3.54,1.21-1.66A2.2,2.2,0,0,0,87.26,28.45Zm1.38,3.61c.39-.48.89-.83,1.29-1.38A2.38,2.38,0,0,0,88.64,32.06Zm.34.7,0-.07c-.41,0-1.31.85-1.32,1.24Zm1.58-.85-1.19,1.14C89.71,33.11,90.53,32.3,90.56,31.91Zm.45.62-.08-.08c-.46.13-.7.55-1,.86,0,0,0,.1,0,.14a.17.17,0,0,0,.12,0Zm-2.77-3.48c.35-.42.66-.8,1-1.17A1.54,1.54,0,0,0,88.24,29.05Zm-.68-2.12.11.1c.33-.37.64-.75,1-1.13l-.06,0C88.09,26.07,87.87,26.55,87.56,26.93Zm.83-1.36c.28-.25.55-.49.84-.73C88.84,24.81,88.36,25.22,88.39,25.57Zm1.74,5.66a1.25,1.25,0,0,0-.89.56.09.09,0,0,0,.13.13Zm-1.4-3.76a.18.18,0,0,0-.07,0,1.18,1.18,0,0,0-.52.66s0,.1,0,.14.1,0,.11,0C88.45,28,88.59,27.72,88.73,27.47ZM88,25.89a.58.58,0,0,0-.63.61Zm-.78,7.46.07.06a.57.57,0,0,0,.43-.62C87.56,33,87.39,33.17,87.22,33.35Zm.06-8.54-.06-.06c-.35.05-.53.22-.47.52Zm2.85,7.06-.07-.11a4.37,4.37,0,0,0-.4.25s0,.09,0,.14.11,0,.15,0S90,32,90.13,31.87Zm-1,1.36L89,33.15c-.1.11-.21.21-.3.32s0,.1,0,.15a.17.17,0,0,0,.12,0Zm-6-5.82-.12.08.4.58.09-.06C83.42,27.81,83.3,27.62,83.18,27.41Zm4-5.67.08.15.46-.23-.06-.12Z"/><path class="cls-1" d="M78,17.8a2.59,2.59,0,0,0,1.17,1.57,1.71,1.71,0,0,0,2.53-.65c-.18.09-.31.18-.45.24a4.56,4.56,0,0,1-1,.36c-.69.11-1.12-.35-1.54-.79a1.71,1.71,0,0,1-.35-1.66,1.76,1.76,0,0,1,1.19-1.43,4,4,0,0,1,1.87-.28,1.36,1.36,0,0,1,1.21,1.69c-.06.21-.11.42-.18.67A1.31,1.31,0,0,0,83,16.13a1.77,1.77,0,0,0-2-1.32,3.77,3.77,0,0,1,2.3.27,3,3,0,0,1,1.59,2.53,5.14,5.14,0,0,1-.44,1.95c-.35.91-.67,1.85-1,2.75a8.94,8.94,0,0,1-1.13,2A5.17,5.17,0,0,1,81,25.66a.59.59,0,0,1-.23.13,2.3,2.3,0,0,1-1.71-.07,2.85,2.85,0,0,1-.5-.43c-.16-.14-.32-.27-.47-.42s-.15-.17-.15-.25a1.68,1.68,0,0,0-.46-1.09,1.88,1.88,0,0,1-.19-.62c-.06-.27-.12-.56-.2-.82a.77.77,0,0,1,0-.68,1.21,1.21,0,0,0,.08-1.11.77.77,0,0,1,.1-.69,2.26,2.26,0,0,0,.32-1.21A.6.6,0,0,1,78,17.8Zm4.76,4.46-.09,0a.32.32,0,0,0-.12.11,3,3,0,0,1-1.12,1,3.41,3.41,0,0,1-1.54.6,2.64,2.64,0,0,1-2-.69l-.18-.16a.6.6,0,0,1-.08.08,2.91,2.91,0,0,0,.49.6,2.52,2.52,0,0,0,2.61.28,14.34,14.34,0,0,0,1.36-.81A1.71,1.71,0,0,0,82.78,22.26Zm.14-3.64-.07-.08a3.93,3.93,0,0,1-3.56,1.57,1.1,1.1,0,0,0,.93.29c.27,0,.53-.15.8-.22a3,3,0,0,0,1.76-1.26A2.75,2.75,0,0,0,82.92,18.62Zm-5.12.94c0,.15,0,.22,0,.24a3.23,3.23,0,0,0,.7.84,2.92,2.92,0,0,0,2,.31.56.56,0,0,0,.46-.39C79.76,20.8,78.62,20.8,77.8,19.56Zm2.57,2.49-.41,0a2.82,2.82,0,0,1-.58,0,4,4,0,0,1-1.56-.76l-.24-.13-.06.07c.06.07.1.17.17.22a9.2,9.2,0,0,0,1.25.81A1.18,1.18,0,0,0,80.37,22.05Zm3.16-1.29.06,0a2.41,2.41,0,0,0,.22-.42c.19-.51.38-1,.53-1.55a11.64,11.64,0,0,0,.25-1.31,1,1,0,0,0,0-.34C84.19,18.39,83.86,19.58,83.53,20.76ZM82,16.56a1.22,1.22,0,0,0-1.25-.8c-.66.05-1,.26-1.07.67A1.76,1.76,0,0,1,82,16.56Zm-1.66,8.19c.44.28,1.73-.52,1.85-1.07Zm-1.91-.24a.11.11,0,0,0,0,0,.24.24,0,0,0,.06.09c.38.43.91.36,1.4.39.08,0,.16-.12.28-.2Zm4.65-9.06a2.59,2.59,0,0,1,.21,1.91C83.86,17,83.76,15.55,83.12,15.45Zm-3.66,6c.2.36,1.72.19,2-.22Zm-1.54-3a1.77,1.77,0,0,0,.39,1.22.62.62,0,0,0,.77.27A3,3,0,0,1,77.92,18.4Zm1.93,0a2.17,2.17,0,0,1-.5-1.66C79,17.19,79.13,18.29,79.85,18.41Zm.71,6.94c-.49.27-1,0-1.53,0C79.49,25.87,80.38,25.87,80.56,25.35Zm2.72-6.52L82.45,20C82.77,20,83.26,19.37,83.28,18.83Zm-5.64,1.56a.65.65,0,0,0,.75.68Zm6.41-3.54c.21-.4.12-.8-.17-.9C83.94,16.24,84,16.52,84.05,16.85Zm-.35,1a.42.42,0,0,0,.14-.71C83.79,17.45,83.74,17.67,83.7,17.9ZM83.2,20l-.13-.1-.38.48.13.1Zm-4,1.48a.41.41,0,0,1,0-.09c-.14-.07-.27-.16-.4-.23s-.09,0-.11.05,0,.08,0,.1S79,21.53,79.18,21.45Zm4.17-.19-.09,0-.23.6A.43.43,0,0,0,83.35,21.26Zm-1.47-1.2-.36.29s0,.07.08.11l.29-.27S81.89,20.18,81.88,20.06Z"/><path class="cls-1" d="M97.06,23.89c.17.37.37.75.52,1.14.42,1.15.82,2.3,1.23,3.45,0,.13.11.25.16.37l.08,0a1.91,1.91,0,0,0,0-.48c-.37-1.23-.73-2.47-1.14-3.69a4.55,4.55,0,0,0-.57-1c-.08-.12-.29-.26-.4-.23a.56.56,0,0,0-.29.37,6.06,6.06,0,0,0-.15,1,32.81,32.81,0,0,0,0,4.65c0,.2.06.39.07.58a.3.3,0,0,1-.08.23c-.37.28-.77.55-1.15.83a.4.4,0,0,1,.19-.54.93.93,0,0,0,.46-.88c0-1,0-2.05-.17-3.06a20.69,20.69,0,0,0-.67-2.51c0-.14-.07-.3-.1-.44a7.88,7.88,0,0,0-1.36-3.14,9.38,9.38,0,0,0-.57-.83,3.88,3.88,0,0,0-.66-.62c-.14-.1-.2-.18-.18-.34s0-.34,0-.47a7.23,7.23,0,0,1,2.53,4,2.82,2.82,0,0,0-.38-1.67c-.25-.5-.56-1-.84-1.45a.51.51,0,0,1,.52.32c.3.58.58,1.15.87,1.73.08.17.15.34.23.56.09-.47,0-.71-.91-2.42.29.14.57.2.69.5l.72,1.6a1.35,1.35,0,0,0,.15.26,6.14,6.14,0,0,0-.6-1.86l.06-.05a.8.8,0,0,1,.22.23c.22.43.42.88.63,1.31a.61.61,0,0,0,.13.22A3.39,3.39,0,0,0,95.76,20c.34-.05.38,0,.47.28s.11.38.16.58l.12,0c0-.28-.05-.55-.09-.84h.22c0,.35.06.68.09,1h.11V20h.51c-.08.46-.15.92-.22,1.37a.32.32,0,0,0,.09,0,1.78,1.78,0,0,0,.12-.29,4.92,4.92,0,0,0,.17-.85c0-.24.14-.33.39-.33a3.76,3.76,0,0,0-.32,1.78c0-.15.11-.29.15-.44.11-.34.23-.67.31-1s.36-.59.81-.67a3.39,3.39,0,0,1-.15.32c-.16.24-.32.48-.47.73A2.92,2.92,0,0,0,98,22.8c.15.79.28,1.59.48,2.38a10.24,10.24,0,0,0,.52,1.5c.24.57.5,1.13.76,1.69.07.13.16.25.23.38l.11,0a3.71,3.71,0,0,0-.11-.58c-.15-.36-.33-.72-.5-1.07s-.23-.47-.34-.7l.69-.43-.06-.13-.69.27c0-.11-.07-.23-.1-.32a11.24,11.24,0,0,0,1-.55c.19-.12.29,0,.4.07a.35.35,0,0,1,.1.24c.06.28-.07.43-.35.5a1.91,1.91,0,0,0-.46.3l.06.1c.21-.07.42-.13.62-.21s.26-.07.36.1a2.38,2.38,0,0,0,.26.31c-.32.43-.21,1,.35,1.67-.43.36-.46.45-.35,1a1.63,1.63,0,0,0-.25-.1.54.54,0,0,0-.78.32c0,.08-.12.13-.18.19l-.26.22,0,.09.4-.1c0,.11.08.23.13.35-.32.26-.77.33-1,.73a2.34,2.34,0,0,0,1.06-.52c.3.51.58,1,.87,1.52-.34.34-.81.56-1,1a4.76,4.76,0,0,0,1.13-.78v.49l-.14,0c-.43.06-.61.28-.54.71,0,.22.08.43.13.69-.29-.18-.59-.38-.87-.17s-.52.31-.58.62l.06.06.35-.24c0,.34.11.65.17,1-.8-.7-.84-.7-1.46,0l-.47-.78,1.64-1.27-.06-.09a1.39,1.39,0,0,0-.35.16,10.51,10.51,0,0,0-1.09.8,1.32,1.32,0,0,1-.86.38,1.12,1.12,0,0,0-.38-1.08c.44-.47,1.08-.69,1.35-1.32-.13.09-.27.16-.39.25-.34.24-.69.5-1,.76s-.19.17-.48,0l2.53-2-.07-.09a8.42,8.42,0,0,0-1.3.83c-.44.31-.85.64-1.3,1a.72.72,0,0,1,.17-.65,5.66,5.66,0,0,0,.47-.6l-.1-.09-.63.57L95.76,32c.61-.73,1.53-1.08,2.12-1.82a.21.21,0,0,1,0-.06,3.59,3.59,0,0,0-.47.27q-.86.66-1.68,1.35c-.15.12-.24.05-.33,0a.28.28,0,0,1,0-.24l1.47-1.09c.25-.18.49-.38.74-.57l-.07-.11-.73.4c.06-2.05-.09-4.1.16-6.13C97,23.91,97,23.9,97.06,23.89Zm.37,9.52a1.06,1.06,0,0,0,.3-.11c.7-.51,1.39-1,2.08-1.55a2,2,0,0,0,.22-.28A10.2,10.2,0,0,0,97.43,33.41Zm-1.39-8a5,5,0,0,0-.61-3.06C95.64,23.43,95.84,24.44,96,25.45Zm2.74,4.84a.56.56,0,0,0,0-.08c-.54.11-1.71.91-1.75,1.26Zm.71,3.47c-.38,0-1.28.76-1.25,1.09A10,10,0,0,0,99.49,33.76Zm-.62-.65,0,0a.64.64,0,0,0-.2,0c-.3.19-.61.39-.91.6,0,0,0,.13-.06.2a.72.72,0,0,0,.21,0l.73-.49A2,2,0,0,0,98.87,33.11Zm-.33-4.51a.75.75,0,0,1-.07-.12,3.29,3.29,0,0,0-1.06.65l.06.11ZM97,22.76a1.3,1.3,0,0,0-.15-1.18l-.07,0C96.8,22,96.88,22.37,97,22.76Zm2.27,8.78-.07-.09a1,1,0,0,0-.62.41s0,.11,0,.12.11,0,.14,0C98.86,31.85,99,31.69,99.22,31.54Zm1.3-4.86a.73.73,0,0,0-.59.24.19.19,0,0,0,0,.15s.08.05.11,0A.74.74,0,0,0,100.52,26.68Zm-4.48-4,.15.64C96.39,23,96.34,22.73,96,22.64Zm2,5.46-.46.22a.13.13,0,0,0,0,.12.14.14,0,0,0,.1.07C97.82,28.45,98,28.4,98,28.1Zm-.41-5.91h-.15c0,.2,0,.4.07.6h.11C97.64,22.59,97.63,22.4,97.62,22.19Zm1,7.27-.35.32s.09.1.12.1S98.67,29.74,98.64,29.46Zm-2.51-2.92.14,0c0-.17,0-.33-.07-.49l-.14,0C96.08,26.22,96.11,26.38,96.13,26.54Zm4.6.89c-.13-.06-.19-.1-.24-.09s-.12.09-.19.13.11.11.16.11A1,1,0,0,0,100.73,27.43Zm-2.81.34-.35.22.07.09.31-.22Zm1.42,4.94,0,.11c.18,0,.29-.06.34-.28Z"/><path class="cls-1" d="M99.21,17.54a1.9,1.9,0,0,1-.43,1.51,1.56,1.56,0,0,1-1,.35,3,3,0,0,1-1-.43c.08.19.14.35.23.58-.16-.07-.33-.08-.42-.17a3.15,3.15,0,0,1-1-1.47.89.89,0,0,0,.12.87c.17.25.36.47.55.73a.46.46,0,0,1-.55-.19c-.13-.2-.28-.39-.42-.59a1.38,1.38,0,0,1-.14-.27l-.15.12c.11.26.23.52.34.79-.46-.11-.56-.5-.68-.87a3.52,3.52,0,0,0-.19-.51,1.21,1.21,0,0,0,.08,1c-.23,0-.37-.1-.45-.35A3.27,3.27,0,0,1,94,17.07a.91.91,0,0,0,0-.36,2.08,2.08,0,0,0,0,2.05c-.22,0-.33,0-.35-.28,0-.56-.11-1.12-.17-1.68a2.6,2.6,0,0,0-.09-.47,1.66,1.66,0,0,0-.16,1.13c0,.38.12.75.19,1.16-.36-.12-.41-.46-.45-.73A5,5,0,0,1,93,15.51a.65.65,0,0,0,0-.34,1.86,1.86,0,0,0-.42,1.34c0,.47,0,.94.08,1.49-.21-.25-.38-.45-.53-.66a.38.38,0,0,1,0-.26c.15-.7.27-1.41.48-2.1a5,5,0,0,1,1.7-2.63,1.3,1.3,0,0,1,1-.18c-.3.34-.69.56-.75,1.11L94.9,13c.23-.23.46-.46.7-.68.06-.06.16-.06.28-.06A3.14,3.14,0,0,0,95,13.51l.06,0c.15-.16.29-.32.45-.47s.49-.46.74-.7a.31.31,0,0,1,.42-.05c.36.24.7.52,1.07.76A5.67,5.67,0,0,1,99.2,15a1.47,1.47,0,0,1,.19,1c0,.28-.09.57-.13.85a.69.69,0,0,1-.61.54,1.88,1.88,0,0,1-1.25-.21.94.94,0,0,0-.26-.1C97.42,17.67,98.19,18,99.21,17.54Zm-1.5-3.61a.46.46,0,0,0-.07-.07.67.67,0,0,0-.18.11c-.15.13-.3.26-.44.4a.82.82,0,0,0-.23.84,6.69,6.69,0,0,0,.42,1.16,1.33,1.33,0,0,0,.38.44c.54.41,1.15.24,1.28-.35-.74.42-1.27.21-1.53-.61-.06-.17-.11-.33-.18-.49a.78.78,0,0,1,.18-1A5.32,5.32,0,0,0,97.71,13.93ZM98,16a.48.48,0,0,0,.59.18.54.54,0,0,0,.38-.51,3.19,3.19,0,0,0-.08-.61.71.71,0,0,0-.5-.52.41.41,0,0,0-.48.16c-.2.23-.25.41-.14.63a1.89,1.89,0,0,1,.22-.31c.08-.07.21-.18.28-.15a.46.46,0,0,1,.27.26c.12.48.2.79-.44.82Zm-1.63,0c0-.23,0-.46,0-.68a1.54,1.54,0,0,1,.26-1.2c.18-.24.33-.5.52-.77A1.73,1.73,0,0,0,96.34,16Zm-1.75-3.49c-.76.25-1.67,1.76-1.3,2.22A5.19,5.19,0,0,1,94.59,12.55Zm-.23.81c-.53.31-.94,1.25-.74,1.62C93.85,14.46,94.09,14,94.36,13.36Zm-.06,1.42a1.25,1.25,0,0,0-.17,1.43C94.19,15.73,94.24,15.29,94.3,14.78Zm1.83,2.67c0,.6.19,1.09.59,1.2C96.52,18.26,96.35,17.89,96.13,17.45Zm1.57,1.36c-.25-.28-.51-.55-.8-.86A1,1,0,0,0,97.7,18.81ZM94.61,16.4a2.44,2.44,0,0,0,0-1.14A1.16,1.16,0,0,0,94.61,16.4Zm.53.91h-.08c-.17.35-.12.65.16.69C95.19,17.76,95.16,17.53,95.14,17.31Zm-.49-.42h-.08a.47.47,0,0,0,.12.7C94.67,17.31,94.66,17.1,94.65,16.89Zm-1.09-1.5h-.17a4.17,4.17,0,0,0,0,.5.11.11,0,0,0,.09.08s.09-.05.09-.08Zm4.56,3.14c-.08-.34-.24-.48-.48-.45C97.75,18.27,97.84,18.46,98.12,18.53Z"/><path class="cls-1" d="M80.27,13.72a4.42,4.42,0,0,0,.17-2.36h-.09c0,.12-.06.25-.07.38,0,.44,0,.88-.11,1.32a1.18,1.18,0,0,1-.67.94,6.52,6.52,0,0,0,.22-4.58h-.11a4.14,4.14,0,0,0,0,.61,6.6,6.6,0,0,1-.38,3.75c-.12.3-.2.57-.6.67,0-.1,0-.19.06-.26a8.72,8.72,0,0,0,.66-3.42c0-1.25-.07-2.51-.12-3.76a9,9,0,0,0-.17-1.14c0-.06,0-.12,0-.19.26,0,.3.16.32.34a7.36,7.36,0,0,0,.12,1,2.6,2.6,0,0,0,.13-1.27h.45v2h.1a7.17,7.17,0,0,0,.08-2h.66v1.7H81a2.07,2.07,0,0,0,.08-.42q0-.56,0-1.11c0-.14,0-.24.21-.18a14,14,0,0,0,.15,2.67,15.83,15.83,0,0,0,.15-2.68h.29a10.55,10.55,0,0,0,.12,2h.07a4.11,4.11,0,0,0,.08-.6c0-.42,0-.85,0-1.27,0-.19,0-.27.26-.24a3,3,0,0,0,.1,1.2h.08a3.43,3.43,0,0,0,.09-.44,5.14,5.14,0,0,0,0-.68c0-.21,0-.21.3-.27v2.1h.13a5.43,5.43,0,0,0,.07-2.24l.1-.06.18-.09c0,.35,0,.67-.06,1a3,3,0,0,0,0,.67,2.85,2.85,0,0,1-.26,1.33,6.1,6.1,0,0,0,0,3.31c.23.74.47,1.48.7,2.22-.06-.05-.21-.09-.26-.19A6.86,6.86,0,0,1,83,12.35c-.25-.75-.42-1.53-.63-2.3a.84.84,0,0,1,0-.17c-.28.44,0,1.6.8,3.7-.11-.07-.25-.11-.31-.2-.16-.25-.28-.51-.41-.76A4.13,4.13,0,0,0,82,12a3.17,3.17,0,0,0,.49,1.53c-.14,0-.27,0-.33-.11a1.51,1.51,0,0,1-.46-1c0-.45,0-.9-.08-1.35a.34.34,0,0,0-.14-.23c0,.15,0,.3-.06.46a8.15,8.15,0,0,0,0,1.21,5.72,5.72,0,0,0,.34,1H81a4.18,4.18,0,0,0,0-1.69H81l-.09.59c0,.27,0,.54-.08.81C80.74,13.65,80.71,13.67,80.27,13.72Zm1.21-3.78a1.19,1.19,0,0,0,.08-.81s0-.07-.08-.07-.1,0-.1.06A1.13,1.13,0,0,0,81.48,9.94ZM79.63,7.68a.72.72,0,0,0,.09.77A1.09,1.09,0,0,0,79.63,7.68Z"/><path class="cls-1" d="M94.53,23.42l.18.83c-.37.25-.82.37-1.08.77a.56.56,0,0,1,.05.08l1.13-.55c.12.45.24.89.35,1.33,0,.05-.08.14-.14.19l-.42.3a1.17,1.17,0,0,0,.05.11l.68-.26c.07.26.16.54.21.81,0,0-.08.12-.13.18l-.37.44.09.09.5-.35c0,.62.07,1.2.1,1.8,0,.1,0,.21,0,.29.25.56-.13.79-.46,1l-.73-.3.74-.54,0-.08c-.35,0-.6.24-.88.4a.21.21,0,0,1,0-.35l.66-.51a1.54,1.54,0,0,0,.28-.34,2.65,2.65,0,0,0-1.18.68c-.16-.16-.18-.29,0-.42s.58-.38.85-.58a3.31,3.31,0,0,0,.44-.4l-.07-.1c-.26.15-.52.29-.78.45s-.48.34-.72.52c-.14-.12-.12-.22,0-.33l.62-.48a.8.8,0,0,0,.2-.21,1.62,1.62,0,0,0-1,.59c-.19-.13-.16-.23,0-.35l1.2-.92a1.36,1.36,0,0,0,.3-.33,1.61,1.61,0,0,0-1,.48c-.3.22-.57.46-.87.71l-.16-.22,1-.89-.06-.07a2.72,2.72,0,0,0-1,.74c-.26-.36-.28-.38,0-.64s.7-.55,1.06-.83a1.07,1.07,0,0,0,.27-.32A5.15,5.15,0,0,0,92.68,27a.75.75,0,0,1,0-.31,3.6,3.6,0,0,1,.5-.53,3.18,3.18,0,0,0,.33-.3c-.33,0-.58.17-1,.75-.29-.26-.29-.32,0-.55L93,25.6a.63.63,0,0,0,.16-.23,2.18,2.18,0,0,0-1,.61L92,25.8c.67-.51,1.38-.94,2-1.5,0,0,0-.07-.06-.1a4.34,4.34,0,0,0-.53.26l-1.55,1.16c-.29-.2-.3-.26,0-.48s.42-.3.63-.46.15-.15.26-.26c-.33,0-.41.06-1.15.66-.14-.13-.16-.26,0-.38s.53-.42.8-.63a1.81,1.81,0,0,0,.36-.37,3.13,3.13,0,0,0-1.43.91l-.2-.29,1.24-1.1-.09-.12c-.21.15-.42.29-.62.45s-.4.31-.6.47L90.94,24a1.85,1.85,0,0,1,.21-.33l1.54-1.27a1.76,1.76,0,0,0,.31-.3,5.44,5.44,0,0,0-1.94,1.22,1.35,1.35,0,0,1,.56-.85c.32-.26.68-.47,1-.71a2.09,2.09,0,0,0,.43-.41,6.58,6.58,0,0,0-1.65.92,1,1,0,0,1,.37-.67c.22-.16.42-.34.63-.51L92.35,21l-.49.22c0-.72.67-.69,1-1,.31.31-.27.34-.11.61l.41-.2.65.95-.36.25,0,.07.43-.05.14.29-.59.33a.69.69,0,0,0,0,.13l.67-.16.11.34a2.75,2.75,0,0,0-1.2.71l0,.08,1.25-.57.08.08c0,.08-.07.19-.14.22-.3.18-.63.32-.94.49a1.44,1.44,0,0,0-.36.3A3.63,3.63,0,0,0,94.53,23.42Zm-2-.43a.24.24,0,0,1,.06.08l.63-.42,0-.07A.68.68,0,0,0,92.54,23Zm1.86,2.13c-.12.1-.25.19-.36.29s0,.07.07.11l.34-.31A.39.39,0,0,0,94.4,25.12Z"/><path class="cls-1" d="M83.64,22.89c.43-1.16.87-2.29,1.27-3.44a5,5,0,0,0,.39-2,3.26,3.26,0,0,0-1.06-2.14,3.08,3.08,0,0,0-2.51-.91,4.86,4.86,0,0,1-.54,0,1.69,1.69,0,0,0-1,.33,3.46,3.46,0,0,1-.45.29.56.56,0,0,1-.8-.17.54.54,0,0,1-.05.11c0,.12.07.24.11.38a2,2,0,0,0-1,1.6,1.38,1.38,0,0,1-.29.58.53.53,0,0,1-.68.16,1.45,1.45,0,0,0-.25,0c0,.31.26.35.46.43A2.64,2.64,0,0,1,77,19.35a.35.35,0,0,1-.33.21,2.71,2.71,0,0,0-.41.09v.12l.49.11a8.15,8.15,0,0,1,.16.86c0,.35-.1.47-.44.51l-.25.06a.29.29,0,0,0,0,.09l.44.19V22a2.09,2.09,0,0,0-.39.11c-.06,0-.1.08-.15.13s.1.1.16.11a.49.49,0,0,0,.24,0c.26-.11.35.07.38.26a2,2,0,0,1,0,.69c0,.11-.14.2-.21.3a2.25,2.25,0,0,0-.12.21,2.26,2.26,0,0,0,.26,0c.06,0,.11-.07.18-.1a4.79,4.79,0,0,1,.36.41.8.8,0,0,1,0,.93.93.93,0,0,0,0,.25.47.47,0,0,1,.23,0c.19.06.44.09.54.22a1.45,1.45,0,0,0,.88.71,1.66,1.66,0,0,1-1.8-.78c-.28-.58-.61-1.14-.88-1.72A3.57,3.57,0,0,1,76,22.58a7.85,7.85,0,0,1,.19-3.27,2,2,0,0,0,.09-.42,7.16,7.16,0,0,1,1.21-3A4,4,0,0,1,79,14.71,6.1,6.1,0,0,1,82.58,14a5.86,5.86,0,0,1,1.5.29,2.14,2.14,0,0,1,1.11,1,3.59,3.59,0,0,1,.45,1.86,14.7,14.7,0,0,1-.53,3A11.46,11.46,0,0,1,84,22.75C83.94,22.92,83.83,23,83.64,22.89Z"/><path class="cls-1" d="M87.9,18.27l-.7.43-.54.31a.54.54,0,0,1-.61,0,.33.33,0,0,1-.13-.24,3.2,3.2,0,0,1,.81-2,2.93,2.93,0,0,1,2.58-1A1.25,1.25,0,0,1,90,16a2.9,2.9,0,0,1,1,2.49,8.72,8.72,0,0,1-.18,1.14,1.11,1.11,0,0,1-1.75.62.6.6,0,0,1-.23-.54,2.66,2.66,0,0,0,0-.75.42.42,0,0,0-.7-.3,4.77,4.77,0,0,0-.76.6,1.39,1.39,0,0,1-1.21.51c-.45-.08-.48-.13-.27-.55A1.63,1.63,0,0,0,87.9,18.27Zm2.42-.89.07-.05a1.71,1.71,0,0,0-.6-1.14.89.89,0,0,0-.9-.3,9.61,9.61,0,0,0-1.3.36,1.44,1.44,0,0,0-.81,1l.17-.08a.48.48,0,0,0,.11-.09,2,2,0,0,1,1.22-.72c1-.26,1.11-.29,1.76.61Zm.26,2.08-.33.19c-.32.19-.53.11-.64-.23a2.89,2.89,0,0,1-.11-.51A1.28,1.28,0,0,0,89,18a.38.38,0,0,0-.56,0c.06,0,.1.07.13.07.27,0,.4.15.47.36s.17.65.26,1,.27.54.56.56S90.41,19.85,90.58,19.46Zm-1-2.39a.6.6,0,0,0-.64-.56,2.61,2.61,0,0,0-2.27,1.36.71.71,0,0,0-.06.22l.1.07c.24-.27.46-.54.71-.79a2.31,2.31,0,0,1,1.23-.58,1.15,1.15,0,0,1,.83.26S89.51,17.06,89.56,17.07Zm.55,2.17h.1a2.44,2.44,0,0,0,0-1.17,1.54,1.54,0,0,0-.17-.42c0-.05-.13-.06-.2-.09a1.34,1.34,0,0,0,0,.2c0,.21.12.43.16.65S90.06,19,90.11,19.24Zm.43-.5.09,0a.82.82,0,0,0,0-.7c0-.05-.09-.07-.14-.1s-.09.07-.08.09C90.45,18.25,90.49,18.5,90.54,18.74Z"/><path class="cls-1" d="M90.71,25.43c0-.13-.07-.25-.09-.37-.1-.41-.21-.82-.27-1.24a1.24,1.24,0,0,1,.07-.6c.15-.41.33-.8.5-1.19a.2.2,0,0,1,.12-.12c-.11.32-.19.65-.32,1a2,2,0,0,0,.17,1.95,4,4,0,0,1,.31,1.4c0,.22-.92.77-1.07.62a1.35,1.35,0,0,1-.37-.67,2.57,2.57,0,0,1,.08-.72,6.38,6.38,0,0,0,.06-1.15,3.12,3.12,0,0,1,.44-1.94,9.92,9.92,0,0,0,1-3.16A3.53,3.53,0,0,0,91.18,17a2.55,2.55,0,0,0-1.59-1.64,2,2,0,0,0-.88-.05,3.42,3.42,0,0,0-2.52,1.54,1,1,0,0,1,.39-1c.33-.25.67-.49,1-.72a.89.89,0,0,1,.42-.17,12.78,12.78,0,0,1,1.64.07,1.43,1.43,0,0,1,.68.35,3.71,3.71,0,0,1,1.07,1.26,3.44,3.44,0,0,1,.24.68c.09.41.16.83.21,1.25a2,2,0,0,1,0,.59,5,5,0,0,1-.6,1.9,14.23,14.23,0,0,0-1,2.24,1.81,1.81,0,0,0,0,.92,12.23,12.23,0,0,0,.31,1.19.54.54,0,0,0,.09.12S90.68,25.44,90.71,25.43Zm0,.4c-.11.18-.22.33-.32.49a.6.6,0,0,0-.08.2c.08,0,.18,0,.24,0S90.81,26.14,90.69,25.83Z"/><path class="cls-1" d="M81.05,30.59c0-.57.56-.84.77-1.32a2,2,0,0,0-.86.8.46.46,0,0,0-.07-.07c.27-.32.53-.64.81-.95L81.63,29a2.5,2.5,0,0,0-.86.82,4.59,4.59,0,0,1-.44-.15l.58-.9-.06-.06-.43.34c0-.42,0-.87-.41-1.11,0-.15.07-.28.12-.45l1.37,1-.57.53.07.09.62-.32a.51.51,0,0,1,.62.06,4.34,4.34,0,0,1,1,1c-.22.25-.58.35-.65.7l.06.07.77-.57.9,1.1-.54.37a1.47,1.47,0,0,1,.1.13l.48-.27h0c.37.51.37.51-.07,1-.14.14-.27.29-.42.43s-.32.24-.47.36l.08.07c-.17-.08-.33-.17-.51-.27.19-.24.4-.5.59-.76l-.06-.07c-.31.07-.47.34-.67.56-.1-.12-.19-.24-.29-.38l.8-1-.06-.07c-.33.09-.52.39-.77.61a.36.36,0,0,1,.09-.49l.43-.41c.06-.07.11-.17.17-.25l-.08-.09-.82.65c-.07-.06-.07-.06.09-.57l-.27.15a.67.67,0,0,1-.19.05c0-.07,0-.16,0-.2s.26-.29.4-.44a1.52,1.52,0,0,0,.29-.41,1.75,1.75,0,0,0-.94.73c-.11.16-.11.16-.36.11L82,29.8C81.5,29.86,81.35,30.3,81.05,30.59Z"/><path class="cls-1" d="M79.58,36.32c0-.22-.08-.42-.11-.62h-.11c0,.18-.06.37-.1.55-.39,0-.47-.1-.43-.48s0-.59,0-.89h-.1c0,.17-.07.33-.09.5s0,.34-.06.51c-.18,0-.22-.14-.21-.31.09-.88.17-1.77.24-2.65,0-.45,0-.9.13-1.37a1.14,1.14,0,0,1,.13.38c0,.61-.05,1.22-.07,1.83,0,.24,0,.48,0,.73a4.94,4.94,0,0,0,.43-2.39,4.6,4.6,0,0,1,.13.5,5.19,5.19,0,0,1,0,.56c0,.19,0,.38,0,.57a2,2,0,0,0,0,.54,2.28,2.28,0,0,0,.23-1.3c.37.34.08.79.26,1.13l.08,0c.06-.2.1-.41.16-.63.32,0,.27.37.39.59a1.94,1.94,0,0,0,.21-.2v1.85h.11c.07-.51.13-1,.19-1.53.43.13.16.55.37.83l.18-.33c.24,0,.34.14.3.38s-.06.61-.11.91c0,.07-.11.12-.2.21,0-.33-.06-.58-.08-.84h-.11a6.17,6.17,0,0,1-.09.64.32.32,0,0,1-.15.23A3.22,3.22,0,0,1,79.58,36.32Zm.47-2V35.8C80.36,35.42,80.31,34.41,80.05,34.35Zm-.69.65h.17c0-.13,0-.26,0-.39h-.13Z"/><path class="cls-1" d="M100.09,19.12l-.77-.2c.47-.92.25-2,.48-2.92a2.18,2.18,0,0,0-.53-1.72c-.12-.18-.21-.37-.34-.53s-.41-.46-.63-.68-.51-.48-.78-.71a2.05,2.05,0,0,0-1.46-.54,9.36,9.36,0,0,1-1-.12,1.45,1.45,0,0,1,1.83-.24c.67.43,1.36.84,2,1.24a2.75,2.75,0,0,1,1.34,1.81,2.35,2.35,0,0,0,.14.52,3.19,3.19,0,0,1,.08,2.62C100.34,18.12,100.23,18.61,100.09,19.12Zm.25-2.24c.06-.09.13-.18.12-.19s-.27-.26-.41-.39c0,0-.1.11-.1.12S100.18,16.7,100.34,16.88Zm.09-.76c0-.24-.21-.28-.37-.33a.32.32,0,0,0-.09.15C100.09,16.06,100.22,16.2,100.43,16.12Zm-.05,1a2.85,2.85,0,0,0-.33-.23.34.34,0,0,0-.08.09,3.45,3.45,0,0,0,.28.26S100.3,17.14,100.38,17.08Zm-1.52-3.81.21-.18C99,13,98.94,13,98.87,13s-.13.07-.2.12A1.69,1.69,0,0,1,98.86,13.27Zm1.28,4.56.11-.11a3.45,3.45,0,0,0-.28-.26l-.09.09Zm.13-2.58-.12-.08c0,.07-.08.16-.06.22s.11.12.17.12.12-.07.17-.11S100.32,15.3,100.27,15.25Z"/><path class="cls-1" d="M97.49,39.31c.19-.24.37-.49.55-.73L98,38.51a2.6,2.6,0,0,0-.32.26,2,2,0,0,0-.35.37c-.25.34-.59.37-1,.32.64-.4,1.31-.7,1.44-1.57-.11.13-.2.21-.26.3A5.73,5.73,0,0,1,96,39.34c-.19.15-.27,0-.35-.19l.25-.16c.37-.27.75-.52,1.11-.8a2.3,2.3,0,0,0,.87-1.3,3.47,3.47,0,0,1,.78-1.37c.18-.23.27-.21.5,0a2,2,0,0,1,.53,1.78,1.73,1.73,0,0,0,0,.32c.06.57-.3.86-.72,1.13-.17.1-.33.22-.55.36.28-.6.85-1,.88-1.62l-.06,0-.16.21c-.4.52-.8,1-1.21,1.55-.07.09-.23.12-.34.18Zm1.4-3.42c-.22.63-.44,1.26-.69,2C98.7,37.53,99.12,36.21,98.89,35.89Zm.39,1a.43.43,0,0,0,.07-.73C99.32,36.41,99.3,36.61,99.28,36.87Z"/><path class="cls-1" d="M77.51,9.11c.49.11.88-.18,1.33-.26.06.18,0,.28-.18.32a3.44,3.44,0,0,0-.77.24c-.41.16-.81.34-1.21.53a2,2,0,0,0-.31.19.94.94,0,0,0,0,.09,4,4,0,0,0,.6-.14c.48-.19.94-.41,1.41-.61l.43-.14c.09.23,0,.34-.22.39a.93.93,0,0,0-.76.51l1-.32c.09.22,0,.33-.17.39a10.46,10.46,0,0,0-1.24.38c-.52.2-1,.44-1.55.67,0-.08-.07-.22-.1-.35a5.12,5.12,0,0,0,1.58-.75l0-.08-1.65.56a2.77,2.77,0,0,1-.09-1.56.22.22,0,0,1,.09-.1L78.16,7.9c.22-.11.44-.2.67-.3.08.25,0,.37-.23.45a9.76,9.76,0,0,0-.93.42.78.78,0,0,0,0,.14l1.13-.32v.25A3.24,3.24,0,0,0,77.51,9.11ZM77,9.33l0-.11a.28.28,0,0,0-.41.13l0,.1Z"/><path class="cls-1" d="M100.57,35.77c0,.27,0,.54,0,.8a4.31,4.31,0,0,0,.13.8,4.58,4.58,0,0,1,0,1.61.48.48,0,0,1-.33.42,2.76,2.76,0,0,1-1.44.37c-.13,0-.26-.09-.47-.15l.61-.44a6.88,6.88,0,0,0,.72-.56.9.9,0,0,0,.27-.54,13.73,13.73,0,0,0,.07-1.7c0-.59-.1-1.19-.14-1.79a2.52,2.52,0,0,1,0-.28,1.38,1.38,0,0,1,.3.21,5.34,5.34,0,0,1,1.17,1.79,3.85,3.85,0,0,0,.39.68,1.17,1.17,0,0,1,.14,1,3.25,3.25,0,0,1-.26.74c0,.12-.21.19-.31.28a1.33,1.33,0,0,1-.15-.32c-.11-.75-.2-1.5-.32-2.24a4.23,4.23,0,0,0-.24-.71Zm-.86,3.65a1,1,0,0,0,.73-.59,1,1,0,0,0-.09-.84A2.26,2.26,0,0,1,99.71,39.42Zm1.8-2.51c0,.51.07,1,.11,1.43A1,1,0,0,0,101.51,36.91Z"/><path class="cls-1" d="M76.21,15.8l.63.36-.14.28-.85-.5-.07.11.72.59c-.57,0-.92-.51-1.42-.51,0,0,0,.05,0,.08l.92.59v.08c-.13,0-.29,0-.39-.07A13.38,13.38,0,0,1,74.43,16a3,3,0,0,1-.43-.56l-.11.08c0-.07.07-.14.11-.2l.75.57.08-.09-.76-.64.81-.7a5.79,5.79,0,0,0,2.79.68.48.48,0,0,1-.6.27c-.14,0-.29,0-.44,0s0,.07,0,.1l.5.23L77,15.9l-.72-.23A.5.5,0,0,1,76.21,15.8Zm-.59,0c-.14-.31-.27-.38-.47-.27C75.3,15.75,75.39,15.8,75.62,15.76Z"/><path class="cls-1" d="M74.77,18.85l1.12-.58.08.09c-.07.09-.14.22-.24.27-.33.17-.69.31-1,.48a3.57,3.57,0,0,0-.43.34s0,.07.06.09l1.47-.69c0,.24,0,.39-.23.47a5.36,5.36,0,0,0-1.74,1.06c0,.05-.14.05-.22.07l0-.08.37-.54-.06-.07-.53.4c-.14-.26-.3-.52-.43-.79a.36.36,0,0,1,.07-.29,3,3,0,0,1,1.22-.95l2.08-1,.06.06a1.71,1.71,0,0,1-.32.29c-.31.17-.65.31-1,.47a3.7,3.7,0,0,0-.33.21.36.36,0,0,1,0,.09l.62-.22c.2-.08.4-.19.62-.3,0,.21,0,.31-.25.36a2,2,0,0,0-1.08.68Zm-1.14.51a.68.68,0,0,0,.68-.49C74,18.9,73.84,19.12,73.63,19.36Z"/><path class="cls-1" d="M103.85,33.84a2.85,2.85,0,0,1-1-.88,2.94,2.94,0,0,0-.78-.68,2,2,0,0,1-.82-.8,13,13,0,0,1-.68-1.28,4.15,4.15,0,0,1-.19-.62.8.8,0,0,1,.64.24c.7.6,1.4,1.2,2.08,1.81a2.35,2.35,0,0,1,.45.54A6.66,6.66,0,0,1,104,33a3.09,3.09,0,0,1,.24.8,7.18,7.18,0,0,0-2.11-2.52l-.08,0a1.82,1.82,0,0,0,.16.31c.23.26.51.51.73.79s.66.88,1,1.33ZM101,30.1a1.61,1.61,0,0,0,.51.87.16.16,0,0,0,.12,0,.14.14,0,0,0,0-.12A1.87,1.87,0,0,0,101,30.1Z"/><path class="cls-1" d="M95.12,38.87a6.45,6.45,0,0,0,1.47-1.48l-.08-.09c-.23.19-.48.38-.69.59a2,2,0,0,1-1.44.77l.33-.21a2.37,2.37,0,0,0,1.12-.85c.19-.36.32-.74.48-1.12s.34-.81.55-1.19a1.15,1.15,0,0,1,.43-.35c.17-.09.26,0,.21.18l-.18.77.11,0,.32-.59a.77.77,0,0,1,0,.72,2.87,2.87,0,0,0-.23.51,3.31,3.31,0,0,1-1.72,2c-.22.15-.45.27-.68.4Zm2-2.36-.1,0c-.07.12-.15.24-.22.37a.15.15,0,0,0,.06.13s.11,0,.12,0A2.83,2.83,0,0,0,97.16,36.51Z"/><path class="cls-1" d="M104.17,35.44,103,33.94l-.09.06a2.48,2.48,0,0,0,.66,1.07,2,2,0,0,1,.52,1.32s0,.06,0,.06l-1-1.55-.1.06.85,1.59-.07.05a1.39,1.39,0,0,1-.62-.51,9.12,9.12,0,0,1-1.13-2.43c0-.14-.14-.25-.19-.38s-.18-.47-.28-.73a.94.94,0,0,1,.73.34c.19.2.34.43.53.62a7.47,7.47,0,0,0,.76.63A1.89,1.89,0,0,1,104.17,35.44ZM102,33.17c.11.18.18.33.27.47s.1,0,.14,0,.06-.06.06-.1S102.28,33.19,102,33.17Z"/><path class="cls-1" d="M80.72,5.41c-.47,0-1,0-1.42-.09A.37.37,0,0,1,78.92,5a.48.48,0,0,1,.24-.52,2.68,2.68,0,0,1,1.42-.38c.82,0,1.64,0,2.46.1.15,0,.39.18.4.29a.65.65,0,0,1-.28.44,2.94,2.94,0,0,1-1.58.46h-.87S80.72,5.4,80.72,5.41ZM83,4.47a1.68,1.68,0,0,0-.37-.06c-.77,0-1.54,0-2.31.07a4.19,4.19,0,0,0-.77.15c-.08,0-.14.13-.21.2s.15.16.24.16a9.53,9.53,0,0,0,1.07,0c.69,0,1.38-.11,2.07-.16C82.9,4.82,83,4.69,83,4.47Z"/><path class="cls-1" d="M95.09,37.46c.2-.78.74-1.42.75-2.24A15.25,15.25,0,0,0,95,36.93a1.15,1.15,0,0,1,0-1,9.39,9.39,0,0,0,.19-.95c.11-.34.27-.66.41-1a.43.43,0,0,1,.54-.29.61.61,0,0,1,.53.53,1.66,1.66,0,0,1-.09.63c-.32.79-.66,1.56-1,2.33A.38.38,0,0,1,95.09,37.46ZM96,34.8l.09,0a.55.55,0,0,0,.27-.48s0-.1-.07-.15-.13,0-.14.09A4.74,4.74,0,0,0,96,34.8Z"/><path class="cls-1" d="M85.59,20a1.61,1.61,0,0,0,1.91-.39,6.28,6.28,0,0,1,.54-.49,2.7,2.7,0,0,1,.33-.19,4,4,0,0,1,0,.57,1,1,0,0,0,.49,1.14,1.29,1.29,0,0,0,1.51.08l.12-.07a.56.56,0,0,1-.47.7c-.81.23-1.34-.15-1.82-.86s-.54-.64-1.06-.14a1.13,1.13,0,0,1-1.54.22C85.33,20.44,85.57,20.25,85.59,20Z"/><path class="cls-1" d="M101.33,27c.32.22.63.46,1,.66a7.37,7.37,0,0,0,.7.3,1.35,1.35,0,0,1,.55.34,3.43,3.43,0,0,1,.57,1.55.75.75,0,0,1,0,.21c-.26.06-.41-.1-.56-.24-.41-.39-.8-.79-1.21-1.19l-.78-.74a1.07,1.07,0,0,1-.29-.83Zm.4.64a4.34,4.34,0,0,0,.57.5,2.91,2.91,0,0,1,1.09.81s0,0,.07,0c.08-.25,0-.48-.34-.67s-.87-.48-1.31-.71Zm2,1.84.12,0c0-.11-.08-.21-.13-.32l-.13.06C103.6,29.29,103.64,29.39,103.69,29.49Z"/><path class="cls-1" d="M94,30.14a3.82,3.82,0,0,1-.33,1.56c-.23.58-.43,1.17-.65,1.75a.39.39,0,0,1-.18.23.3.3,0,0,1-.24-.16,8.29,8.29,0,0,1-.31-1s0-.11.08-.15a4,4,0,0,0,.82-1.59c.14-.46.28-.91.45-1.43a.84.84,0,0,1,.11.78c-.12.4-.29.78-.43,1.17a2.86,2.86,0,0,0-.17.67A7.31,7.31,0,0,0,94,30.14Zm-1.09,2.32-.15-.08-.18.37.12.06Z"/><path class="cls-1" d="M94.07,35.73c-.07-.38-.27-.75,0-1.13a.57.57,0,0,0,.08-.26,8.32,8.32,0,0,1,.89-2.26.61.61,0,0,1,.48.86c-.14.4-.37.78-.51,1.18s-.25.88-.38,1.32c-.05.17-.08.34-.14.52s-.09.08-.14.13-.11-.13-.1-.19c.07-.39.15-.77.24-1.16a3.14,3.14,0,0,0,.12-.61A3.42,3.42,0,0,0,94.07,35.73Zm.73-2.24.13.07c.1-.19.2-.37.29-.56,0,0,0-.11,0-.13a.17.17,0,0,0-.13.05C95,33.11,94.88,33.3,94.8,33.49Z"/><path class="cls-1" d="M104.36,32.09a.54.54,0,0,0-.07-.13.75.75,0,0,0-.12-.14c-.12-.11-.24-.22-.35-.34s-.14-.24-.22-.36l.09-.06.6.51h0l.06,0,0,0a3.07,3.07,0,0,0-.38-.66c-.27-.3-.6-.56-.9-.85s-.8-.8-1.21-1.18a1.37,1.37,0,0,0-.32-.16,7.91,7.91,0,0,1,1.33,1.64l0,.05L101.4,29l.4,1s0,0,.06.06c.41.35.81.72,1.25,1a2.85,2.85,0,0,1,1,1.26,2.71,2.71,0,0,0,.15.26A.75.75,0,0,0,104.36,32.09Zm-.9-1.16-.27-.26s.09-.1.12-.1S103.54,30.72,103.46,30.93Z"/><path class="cls-1" d="M92.27,27.1a1.34,1.34,0,0,1-.15,1.09c-.19.4-.39.81-.58,1.22a.44.44,0,0,0,0,.24,7.72,7.72,0,0,0,1.08-2,2.84,2.84,0,0,1-.09.66c-.3.73-.61,1.46-.93,2.18-.12.26-.37.26-.59,0l.28-.37s0-.05-.06-.07l-.35.21a4.34,4.34,0,0,1-.14-.48.23.23,0,0,1,0-.16c.24-.33.52-.63.72-1C91.76,28.15,92,27.63,92.27,27.1Z"/><path class="cls-1" d="M101.2,15.75a5.49,5.49,0,0,1,1.65.32l0,.13h-.68a.28.28,0,0,1,0,.09c.2.21.49.11.76.2q0,.11,0,.24l-.79-.16c.15.34.46.31.73.42,0,.11,0,.21-.06.3s-.1.3-.33.22c-.08,0-.19,0-.29,0v.08l.37.21a2.74,2.74,0,0,1-1.52-.38l.63,0,0-.08-.36-.19s-.08-.09-.12-.13.12,0,.17,0c.22.08.44.18.66.25a2.22,2.22,0,0,0,.37,0l0-.12-.57-.24c-.2-.08-.47-.1-.57-.25s0-.41,0-.63Z"/><path class="cls-1" d="M90.17,27.33a2.82,2.82,0,0,0,1.48-.88.58.58,0,0,1,.11.68q-.49,1-1.08,2c-.15.25-.33.21-.45-.07a.6.6,0,0,1-.06-.23C90.16,28.32,90.17,27.82,90.17,27.33ZM91.51,27l-1,1.52C91.09,28.28,91.65,27.34,91.51,27Z"/><path class="cls-1" d="M94.89,31.15c0,.43-.25.75-.39,1.11s-.36.74-.52,1.13-.13.5-.22.74a2.51,2.51,0,0,1-.26.58c-.07.14-.19.12-.23,0s-.3-.56,0-.83a.45.45,0,0,0,.08-.17l.75-2.07c.06-.17.1-.35.17-.51a1.53,1.53,0,0,1,.26-.4c.15-.14.28-.08.32.12A1.67,1.67,0,0,1,94.89,31.15ZM94.57,31c-.12.43-.21.79-.31,1.15A1,1,0,0,0,94.57,31Zm-.86,2.4.08,0c0-.12.07-.26.11-.38C93.63,33.08,93.66,33.23,93.71,33.38Z"/><path class="cls-1" d="M91.8,32a4.54,4.54,0,0,0,.82-1.47l-.09-.05-.8,1.39h-.09c0-.23-.07-.45-.1-.68a.08.08,0,0,1,0-.06,4.07,4.07,0,0,0,1-1.72c.16-.34.29-.69.44-1.1a1.42,1.42,0,0,1,.18,1.06c-.22.68-.44,1.37-.69,2a2.84,2.84,0,0,1-.41.63c0,.05-.15.05-.23.08Z"/><path class="cls-1" d="M100.22,24.28a.93.93,0,0,1,.23,0,2.13,2.13,0,0,0,1.35-.52.72.72,0,0,1,1,.18,5.94,5.94,0,0,1,.26.78c-.39.07-.8-.06-1,.39a3.19,3.19,0,0,0-.32-.23.86.86,0,0,0-.75-.06c-.13,0-.22.19-.39.07A.72.72,0,0,1,100.22,24.28Zm1.06.06a.42.42,0,0,0,0,.1,3.44,3.44,0,0,0,.55-.15c.41-.17.41-.18.76,0a.34.34,0,0,0-.42-.45A1.74,1.74,0,0,0,101.28,24.34Z"/><path class="cls-1" d="M102.43,23.2c-.45-.17-.75.08-1.09.3-.77.5-1,.37-1.4-.43-.21-.47-.17-.52.35-.5a3.51,3.51,0,0,1,1.44.1A1.4,1.4,0,0,1,102.43,23.2Zm-1.15-.07a.81.81,0,0,0-.88-.22s-.08.08-.06.11,0,.11.08.11C100.69,23.14,101,23.13,101.28,23.13Z"/><path class="cls-1" d="M102,22.26a1.73,1.73,0,0,1-1.37-.73l-.08.07c0,.16.11.31.17.47l0,.05a.7.7,0,0,1-.23-.15,10.38,10.38,0,0,0-.69-.78c-.06.39.25.62.45.91-.22.07-.34,0-.42-.18s-.32-.6-.45-.91c0-.09,0-.28,0-.31a.38.38,0,0,1,.33,0,4.46,4.46,0,0,0,1.44.65A1.16,1.16,0,0,1,102,22.26Z"/><path class="cls-1" d="M100.41,8.59a9.63,9.63,0,0,1-.32,1.23.39.39,0,0,1-.73,0,1.14,1.14,0,0,1-.17-.51,4.23,4.23,0,0,1,.23-1.83.53.53,0,0,1,.32-.29.47.47,0,0,1,.37.23C100.24,7.83,100.31,8.2,100.41,8.59Zm-1,.32a1.65,1.65,0,0,0,.08.43.4.4,0,0,0,.27.2c.05,0,.18-.11.2-.2a2,2,0,0,0,.12-.6A3.87,3.87,0,0,0,100,8c0-.09-.18-.22-.24-.2a.37.37,0,0,0-.23.24C99.48,8.32,99.44,8.63,99.39,8.91Z"/><path class="cls-1" d="M103.47,37.69a.89.89,0,0,1,0,.13c-.28.28-.55.56-.84.83-.06.05-.18,0-.27,0a1.93,1.93,0,0,1,0-.24,6.67,6.67,0,0,0,.16-1,2.17,2.17,0,0,0-.19-.63c0-.08-.1-.19-.08-.25a1.1,1.1,0,0,1,.27-.3s.15.08.21.15c.2.29.4.57.59.87C103.36,37.43,103.4,37.56,103.47,37.69Z"/><path class="cls-1" d="M103.35,27.51a1.4,1.4,0,0,1-1.12-.43,1.7,1.7,0,0,0-.28-.21,1.72,1.72,0,0,1-.87-.87.52.52,0,0,1-.11-.32.79.79,0,0,1,.17-.47.38.38,0,0,1,.52.14c.19.22.35.47.52.69l1,1.26A1.45,1.45,0,0,1,103.35,27.51Zm-.82-.55a3.58,3.58,0,0,0-1-1.44.23.23,0,0,0-.36.06C101.77,25.89,102,26.61,102.53,27Z"/><path class="cls-1" d="M102.21,35.75c-.06.07-.12.2-.19.21a.35.35,0,0,1-.27-.14,5.54,5.54,0,0,1-.86-2.22,1.36,1.36,0,0,1,0-.4,1.17,1.17,0,0,1,.36.21,2,2,0,0,1,.28.51c.17.42.33.85.49,1.29A4.54,4.54,0,0,1,102.21,35.75Z"/><path class="cls-1" d="M99.43,24.8l-.64.2c-.05-.27-.11-.55-.14-.83,0-.05.1-.13.17-.18l.46-.28a1,1,0,0,1,0-.1l-.61.2-.06,0c.05-.08.1-.18.16-.21.27-.11.54-.19.85-.29.06.16.14.31.21.47l-.07.05.24,0,0,.08-1,.63a1,1,0,0,0,0,.12l.67-.21c.08.15.16.32.25.51l-1.06.56c-.13-.15-.07-.23.09-.31s.31-.2.46-.29A.31.31,0,0,1,99.43,24.8Z"/><path class="cls-1" d="M87.69,37.07a2.25,2.25,0,0,1-.45-.39,11.59,11.59,0,0,1-.69-1.12,1.11,1.11,0,0,1,0-.91,1.91,1.91,0,0,1,.2-.29c.12.16.21.27.3.4.32.5.64,1,.93,1.51a3.07,3.07,0,0,1,.18.61l-.08,0-.27-.29-.07,0C87.7,36.76,87.7,36.87,87.69,37.07Zm-.91-2.19a2.63,2.63,0,0,0,.9,1.62A7.49,7.49,0,0,0,86.78,34.88Z"/><path class="cls-1" d="M79.25,29.34l-.36.67c-.06-.33-.11-.59-.14-.85a.3.3,0,0,1,.1-.2c.24-.2.49-.4.75-.59s.34-.07.35.14a1.54,1.54,0,0,1-.1.75,3.2,3.2,0,0,0-.54,1.53.61.61,0,0,1-.16-.75,4.51,4.51,0,0,0,.22-.65Z"/><path class="cls-1" d="M85.34,35.31a7.31,7.31,0,0,1-.7.43.33.33,0,0,1-.25,0,.24.24,0,0,1-.09-.18c.13-.4.25-.79.41-1.17a.36.36,0,0,1,.69,0,8.44,8.44,0,0,1,.34.88c-.17,0-.16,0-.27-.33a3.61,3.61,0,0,0-.22-.44l-.1,0C85.21,34.76,85.27,35,85.34,35.31Z"/><path class="cls-1" d="M98.79,22.43l.73-.23.07,0a.68.68,0,0,0-.12.81l-1,.3c0-.43.47-.29.57-.64l-.66.16a5,5,0,0,1-.06-.56c0-.06.09-.14.16-.19s.31-.22.47-.33l0-.1-.58.24c0-.17.25-.35.71-.48l.31.48-.63.4Z"/><path class="cls-1" d="M75.34,21.39l.22.41-.35.16c.12.11.21.21.31.29l-.39.26c.27.08.56.1.46.47l-.62.11v-.93a5,5,0,0,1,.35-2.09,2.69,2.69,0,0,1,.22-.28l.1.07c-.07.2-.15.39-.23.59l-.12,0s.13,0,.15.06a.72.72,0,0,1,0,.25c-.29.11-.23.22,0,.33Z"/><path class="cls-1" d="M99.61,19.84c-.19.12,0,.43-.31.37,0-.05,0-.1,0-.15-.08-.56,0-.67.58-.53a1.8,1.8,0,0,1,1.25.94c.08.15.19.28.29.44-.29,0-.51-.05-.62-.34a3.76,3.76,0,0,0-.32-.55l-.1,0c0,.17.07.35.11.56A1.51,1.51,0,0,1,99.61,19.84Z"/><path class="cls-1" d="M93.25,38.86a1.68,1.68,0,0,1-.25-.29c-.14-.26-.2-.57-.46-.76l-.08,0c.07.22.15.45.24.71l-.63-.2s-.1-.06-.1-.1q0-.51,0-1a.7.7,0,0,1,.06-.19C92.57,37.08,93.12,37.84,93.25,38.86Z"/><path class="cls-1" d="M83.54,33.44l1.27-1.37.5.75c-.32.29-.63.59-1,.88l-.2-.12L84.7,33a.46.46,0,0,0-.07-.07C84.21,33,84.06,33.55,83.54,33.44Z"/><path class="cls-1" d="M75.74,23.39l-.3.34.5,0c-.09.15-.16.26-.26.44l.36-.07c.27.19-.09.28-.08.47h.38l-.26.31,0,.06.36-.11c.13.39-.35.34-.39.65-.36-.65-.68-1.22-1-1.8,0-.06,0-.22.07-.23a3.29,3.29,0,0,1,.53-.1A.31.31,0,0,0,75.74,23.39Z"/><path class="cls-1" d="M80.23,32.29a1.65,1.65,0,0,1-.15-2c.06-.08.22-.19.29-.16a.45.45,0,0,1,.22.3,2,2,0,0,1,0,.64C80.46,31.47,80.34,31.87,80.23,32.29Zm-.25-.6.12,0a2.86,2.86,0,0,0,.26-1.11l-.12,0C80.15,31,80.06,31.33,80,31.69Z"/><path class="cls-1" d="M102.5,25.18c.5-.11.74,0,.87.45a9.25,9.25,0,0,1,.29,1.5A3.35,3.35,0,0,1,102.5,25.18Zm.38.19.39.88C103.37,25.8,103.22,25.45,102.88,25.37Z"/><path class="cls-1" d="M78.53,26.76l-.72.8c.53,0,.7-.57,1.16-.64L79,27l-1.4,1.34c-.14.13-.31.21-.47,0s-.17-.2,0-.35a6,6,0,0,0,.75-.76,6.42,6.42,0,0,1,.43-.48s.12,0,.18-.07A.15.15,0,0,1,78.53,26.76Z"/><path class="cls-1" d="M88.42,37.3c.33-.3.62-.57.93-.83a.55.55,0,0,1,.36-.15.39.39,0,0,1,.31.15.34.34,0,0,1,0,.32,1.5,1.5,0,0,1-1,.66C88.82,37.48,88.61,37.35,88.42,37.3Zm.69-.37.08.12c.15-.09.31-.17.45-.27s0-.11,0-.16-.11,0-.15,0S89.25,36.83,89.11,36.93Z"/><path class="cls-1" d="M78,26.49c-.29.34-.55.68-.86,1-.08.09-.33.17-.38.13a.81.81,0,0,1-.24-.49c0-.26.66-.82,1-.87l-.67.89s0,0,.06.07a2,2,0,0,0,.24-.16c.17-.17.32-.37.5-.52a1.07,1.07,0,0,1,.31-.13A.21.21,0,0,1,78,26.49Z"/><path class="cls-1" d="M100.27,12.65l-.39.19-.42-.37,1.22-.56c.35.32-.11.38-.21.65l.49-.09a.76.76,0,0,1-.11.24,4.39,4.39,0,0,1-.53.41s-.1,0-.15,0a.37.37,0,0,1,0-.15,1.25,1.25,0,0,1,.16-.24A.5.5,0,0,1,100.27,12.65Z"/><path class="cls-1" d="M76.25,26.86c-.18-.84-.17-1.29.46-1.58.14.17.21.33,0,.49-.07,0-.1.14-.15.22l.06.07c.14-.08.27-.17.43-.25l.15.19Z"/><path class="cls-1" d="M94.72,37.92l-.23.13-.56-.57-.1.08.4.62-.31.33c-.23-.53-.47-1-.71-1.56l.07-.06A6,6,0,0,1,94.72,37.92Z"/><path class="cls-1" d="M90,37.84l.87-.63c.16-.13.26,0,.31.11.09.27.16.55.26.88-.43-.07-.17-.49-.45-.62,0,.17-.07.33-.11.52C90.56,38,90.27,37.93,90,37.84Z"/><path class="cls-1" d="M92.68,36.8l-.23-.16c.42-.42.64-1,1.09-1.45a.8.8,0,0,1-.06.79c-.16.23-.27.47-.57.56C92.82,36.57,92.76,36.7,92.68,36.8Z"/><path class="cls-1" d="M81.11,33.49a1,1,0,0,1-.37-1.37.22.22,0,0,1,.23,0c.44.28.44.33.27.85A4,4,0,0,0,81.11,33.49Zm0-1H81c0,.16,0,.33-.07.49l.14,0C81.09,32.86,81.11,32.7,81.14,32.53Z"/><path class="cls-1" d="M83.86,35.33c-.22-.06-.2-.23-.16-.39s.09-.42.11-.64c-.3.16-.29.46-.39.79-.07-.11-.16-.18-.16-.25,0-.22.3-.85.46-.85a2.42,2.42,0,0,1,.53.13C84.11,34.56,84,34.94,83.86,35.33Z"/><path class="cls-1" d="M86.54,36.65,85,36.12c.36-.4.73-.52,1-.32a1.78,1.78,0,0,1,.31.4c.08.13.15.26.22.39ZM86,36.33l.1-.07a.89.89,0,0,0-.15-.27.77.77,0,0,0-.28-.09,1.45,1.45,0,0,0,.11.25A1.92,1.92,0,0,0,86,36.33Z"/><path class="cls-1" d="M82.35,34.47,82,34.24a2,2,0,0,1,.79-.81c.22-.1.34,0,.28.23a6.77,6.77,0,0,1-.34,1c0-.09-.09-.17-.08-.25a4.81,4.81,0,0,0,.13-.68C82.44,33.88,82.48,34.2,82.35,34.47Z"/><path class="cls-1" d="M99.74,11.8c-.47-.2-.73.4-1.17.14l1.41-.58c0,.14,0,.2,0,.28l.52,0a.19.19,0,0,0,0,.08l-1.34.62a.56.56,0,0,1,0-.08Z"/><path class="cls-1" d="M78.63,28.44l.62-.75s0-.05-.06-.07l-.63.47a.49.49,0,0,1,.07-.16c.21-.19.42-.39.65-.56.08-.06.22,0,.33-.05a1.28,1.28,0,0,1,0,.39.91.91,0,0,1-.25.27l-.69.52Z"/><path class="cls-1" d="M82,31.86s-.12.12-.2.13a.59.59,0,0,1-.6-.65c0-.21.16-.22.31-.19A.88.88,0,0,1,82,31.86Z"/><path class="cls-1" d="M81.63,33.26a.63.63,0,0,1,.53-.6c.15,0,.23.07.18.19s-.25.45-.38.67c0,0-.15,0-.16,0S81.67,33.32,81.63,33.26Z"/><path class="cls-1" d="M92,20.35c.08-.36.15-.65.24-1l.55.58Z"/><path class="cls-1" d="M98.32,21.4l.47-1,.09,0c0,.23,0,.46.06.7-.19.09-.37.19-.55.29Z"/><path class="cls-1" d="M82.06,35.77c0-.36.08-.68.12-1.06.07,0,.16.06.17.1A1.35,1.35,0,0,1,82.06,35.77Z"/><path class="cls-1" d="M93.72,36.09c.11.18.38.29.11.53l-.34-.19Z"/><path class="cls-1" d="M94,36.8c.07-.24.16-.36.42-.24l-.18.36Z"/><path class="cls-1" d="M57.68,45.18h0a.28.28,0,0,1-.25-.24L52.74,3.52,47.61,35.68a.28.28,0,0,1-.24.23.26.26,0,0,1-.28-.16l-3.78-8.62-3,4.82a.26.26,0,0,1-.23.13H35.66a.27.27,0,0,1,0-.54h4.27l3.19-5.13a.26.26,0,0,1,.25-.13.28.28,0,0,1,.23.16l3.62,8.25,5.3-33.22a.27.27,0,0,1,.27-.23.25.25,0,0,1,.26.24l4.77,42.18,4-11.94a.28.28,0,0,1,.51,0l2.25,5.15L66,32.25a.77.77,0,0,1,.49-.49c.19-.07,1.3-.75,4.17-8.21a.27.27,0,0,1,.25-.18.27.27,0,0,1,.25.18l2.84,8h4.72c0,.23.09.12.09.27a.27.27,0,0,1-.27.27H73.83a.26.26,0,0,1-.25-.18l-2.66-7.48C69,29.35,67.56,32,66.68,32.27a.21.21,0,0,0-.14.15l-1.7,5.28a.29.29,0,0,1-.25.19.28.28,0,0,1-.26-.17l-2.26-5.15L57.94,45A.27.27,0,0,1,57.68,45.18Z"/><path class="cls-1" d="M104.29,31.57V32a.75.75,0,0,0-.12-.14c-.12-.11-.24-.22-.35-.34s-.14-.24-.22-.36l.09-.06.6.51Z"/><path class="cls-1" d="M147.09,31.61v.54h-4a1.12,1.12,0,0,1-1-.7l-3.38-8.33a1.54,1.54,0,0,0-2.69,0l-3.7,7.46a1.06,1.06,0,0,1-1,.6h-4c-.79,0-2.29,1.28-3.53,9.25l0,.15a.31.31,0,0,1-.3.26h0a.3.3,0,0,1-.28-.29L121,4.72l-1.42,26.34a1.09,1.09,0,0,1-1.09,1h-3.21a1,1,0,0,1-.93-.58l-1.53-3a1.32,1.32,0,0,0-1-.51,1.38,1.38,0,0,0-1,.43l-1.67,3.14a1,1,0,0,1-.85.51h-3.93v-.54h3.93a.42.42,0,0,0,.37-.22l1.71-3.2,0,0a1.83,1.83,0,0,1,1.47-.64,1.86,1.86,0,0,1,1.42.74l0,0,1.54,3a.51.51,0,0,0,.45.28h3.21A.56.56,0,0,0,119,31L120.65.27a.29.29,0,0,1,.29-.27h0a.28.28,0,0,1,.28.27l2.34,38.12c1-5.18,2.18-7.74,3.73-7.79h4a.53.53,0,0,0,.47-.3l3.72-7.49a2.07,2.07,0,0,1,1.84-1,2,2,0,0,1,1.8,1.1l0,0,3.38,8.35a.57.57,0,0,0,.53.36Z"/></g></svg>