<svg xmlns="http://www.w3.org/2000/svg" width="15" height="12.5" viewBox="0 0 15 12.5"><path d="M15,4.462a4.031,4.031,0,0,1-.56.8,4.135,4.135,0,0,1-1.012.853q.017.134.025.251a9.1,9.1,0,0,1-.644,3.487A9.181,9.181,0,0,1,9.156,14.4,9.607,9.607,0,0,1,3.437,15.44,6.567,6.567,0,0,1,0,14.111,6.4,6.4,0,0,0,4.582,12.79a3.156,3.156,0,0,1-2.91-2.157,1.957,1.957,0,0,0,.652.033,6.067,6.067,0,0,0,.736-.1A3.449,3.449,0,0,1,.97,8.943,3.5,3.5,0,0,1,.619,7.405a2.938,2.938,0,0,0,1.388.418A3.586,3.586,0,0,1,.644,5.607a4.1,4.1,0,0,1,.376-2A10.51,10.51,0,0,0,4.59,6.284a7.4,7.4,0,0,0,2.8.585A3.743,3.743,0,0,1,7.767,4.5,3.235,3.235,0,0,1,9.7,3.09a2.851,2.851,0,0,1,2.86.886,5.09,5.09,0,0,0,1.99-.736,3.019,3.019,0,0,1-1.371,1.773A8.7,8.7,0,0,0,15,4.462Z" transform="translate(0 -2.999)" fill="#fcf8f9"/></svg>