<?xml version="1.0" encoding="utf-8"?>
<!-- Generator: Adobe Illustrator 24.2.3, SVG Export Plug-In . SVG Version: 6.00 Build 0)  -->
<svg version="1.1" id="Layer_1" xmlns="http://www.w3.org/2000/svg" xmlns:xlink="http://www.w3.org/1999/xlink" x="0px" y="0px"
	 viewBox="0 0 21 13.6" style="enable-background:new 0 0 21 13.6;" xml:space="preserve">
<style type="text/css">
	.st0{fill:#8C8C8C;}
	.st1{fill:#F2F2F2;}
	.st2{fill:#747474;}
	.st3{fill:#5C5C5C;}
	.st4{fill:#484848;}
	.st5{fill:#FFFFFF;}
	.st6{fill:#E2E2E2;}
</style>
<g transform="translate(0)">
	<path class="st0" d="M20.3,0h-9.5L0.4,7.3v6h20l0.7-0.4v-1.3l-0.4-0.4V10L21,9.7V7.8l-0.4-0.4V6.2L21,5.8V3.9l-0.4-0.4V2.5L21,1.9
		V0.7C21,0.3,20.7,0,20.3,0C20.4,0,20.3,0,20.3,0z"/>
	<path class="st1" d="M10.5,1.9H21v1.9H10.5V1.9z"/>
	<path class="st1" d="M10.5,5.8l0.3,1.9H21V5.8H10.5z"/>
	<path class="st2" d="M0.7,10.9V7.4L0,7.8v1.9l0.3,0.2v1.3L0,11.6v1.3c0,0.4,0.3,0.7,0.7,0.7c0,0,0,0,0,0h19.7
		c0.4,0,0.7-0.3,0.7-0.7l0,0H2.7C1.6,12.9,0.7,12,0.7,10.9L0.7,10.9z"/>
	<path class="st3" d="M10.9,0H0.7L0.2,0.7l0.4,7.1h10.2V0z"/>
	<path class="st4" d="M0.7,0C0.3,0,0,0.3,0,0.7c0,0,0,0,0,0v7.1h0.7V0z"/>
	<path class="st5" d="M1.4,1.5C1.2,1.5,1,1.4,1,1.2C1,1,1.2,0.8,1.4,0.8l0,0l0,0c0.2,0,0.3,0.2,0.3,0.3C1.7,1.4,1.5,1.5,1.4,1.5z"/>
	<path class="st5" d="M1.4,4.2C1.2,4.2,1,4.1,1,3.9c0-0.2,0.2-0.3,0.3-0.3c0,0,0,0,0,0l0,0c0.2,0,0.3,0.2,0.3,0.3
		C1.7,4.1,1.6,4.2,1.4,4.2C1.4,4.2,1.4,4.2,1.4,4.2z"/>
	<path class="st5" d="M1.4,6.9C1.2,6.9,1,6.8,1,6.6c0-0.2,0.2-0.3,0.3-0.3c0,0,0,0,0,0l0,0c0.2,0,0.3,0.2,0.3,0.3
		C1.7,6.8,1.6,6.9,1.4,6.9C1.4,6.9,1.4,6.9,1.4,6.9z"/>
	<path class="st1" d="M1.4,2.9C1.2,2.9,1,2.7,1,2.5c0-0.2,0.2-0.3,0.3-0.3l0,0c0.2,0,0.3,0.2,0.3,0.3C1.7,2.7,1.6,2.9,1.4,2.9
		C1.4,2.9,1.4,2.9,1.4,2.9z"/>
	<path class="st1" d="M1.4,5.6C1.2,5.6,1,5.4,1,5.2c0-0.2,0.2-0.3,0.3-0.3c0,0,0,0,0,0l0,0c0.2,0,0.3,0.2,0.3,0.3
		C1.7,5.4,1.6,5.6,1.4,5.6C1.4,5.6,1.4,5.6,1.4,5.6z"/>
	<path class="st5" d="M9.5,1.5c-0.2,0-0.3-0.2-0.3-0.3c0-0.2,0.2-0.3,0.3-0.3l0,0c0.2,0,0.3,0.2,0.3,0.3C9.8,1.4,9.7,1.5,9.5,1.5z"
		/>
	<path class="st5" d="M9.5,4.2c-0.2,0-0.3-0.2-0.3-0.3c0-0.2,0.2-0.3,0.3-0.3c0,0,0,0,0,0l0,0c0.2,0,0.3,0.2,0.3,0.3
		C9.8,4.1,9.7,4.2,9.5,4.2C9.5,4.2,9.5,4.2,9.5,4.2z"/>
	<path class="st5" d="M9.5,6.9c-0.2,0-0.3-0.2-0.3-0.3c0-0.2,0.2-0.3,0.3-0.3c0,0,0,0,0,0l0,0c0.2,0,0.3,0.2,0.3,0.3
		C9.8,6.8,9.7,6.9,9.5,6.9C9.5,6.9,9.5,6.9,9.5,6.9z"/>
	<g transform="translate(3.054 0.834)">
		<path class="st1" d="M6.4,2C6.3,2,6.1,1.9,6.1,1.7c0-0.2,0.2-0.3,0.3-0.3c0,0,0,0,0,0l0,0c0.2,0,0.3,0.2,0.3,0.3
			C6.8,1.9,6.6,2,6.4,2C6.4,2,6.4,2,6.4,2z"/>
		<path class="st1" d="M6.4,4.7c-0.2,0-0.3-0.2-0.3-0.3c0-0.2,0.2-0.3,0.3-0.3c0,0,0,0,0,0l0,0c0.2,0,0.3,0.2,0.3,0.3
			C6.8,4.6,6.6,4.7,6.4,4.7C6.4,4.7,6.4,4.7,6.4,4.7z"/>
		<path class="st1" d="M0.3,0.7C0.1,0.7,0,0.5,0,0.3C0,0.2,0.1,0,0.3,0l0,0c0.2,0,0.3,0.2,0.3,0.3C0.7,0.5,0.5,0.7,0.3,0.7z"/>
		<path class="st1" d="M0.3,3.4C0.1,3.4,0,3.2,0,3.1c0-0.2,0.2-0.3,0.3-0.3l0,0c0.2,0,0.3,0.2,0.3,0.3C0.7,3.2,0.5,3.4,0.3,3.4
			C0.3,3.4,0.3,3.4,0.3,3.4z"/>
		<path class="st1" d="M0.3,6.1C0.1,6.1,0,6,0,5.8c0-0.2,0.2-0.3,0.3-0.3l0,0c0.2,0,0.3,0.2,0.3,0.3C0.7,6,0.5,6.1,0.3,6.1
			C0.3,6.1,0.3,6.1,0.3,6.1z"/>
	</g>
	<path class="st5" d="M3.4,2.9c-0.2,0-0.3-0.2-0.3-0.3c0-0.2,0.2-0.3,0.3-0.3l0,0c0.2,0,0.3,0.2,0.3,0.3C3.7,2.7,3.6,2.9,3.4,2.9
		C3.4,2.9,3.4,2.9,3.4,2.9z"/>
	<path class="st5" d="M3.4,5.6c-0.2,0-0.3-0.2-0.3-0.3c0-0.2,0.2-0.3,0.3-0.3l0,0c0.2,0,0.3,0.2,0.3,0.3C3.7,5.4,3.6,5.6,3.4,5.6
		C3.4,5.6,3.4,5.6,3.4,5.6z"/>
	<path class="st5" d="M2.4,2.2C2.2,2.2,2,2,2,1.9c0-0.2,0.2-0.3,0.3-0.3l0,0c0.2,0,0.3,0.2,0.3,0.3C2.7,2,2.6,2.2,2.4,2.2z"/>
	<path class="st5" d="M2.4,4.9C2.2,4.9,2,4.8,2,4.6c0-0.2,0.2-0.3,0.3-0.3c0,0,0,0,0,0l0,0c0.2,0,0.3,0.2,0.3,0.3
		C2.7,4.7,2.6,4.9,2.4,4.9C2.4,4.9,2.4,4.9,2.4,4.9z"/>
	<path class="st1" d="M2.4,3.5C2.2,3.5,2,3.4,2,3.2C2,3,2.2,2.9,2.4,2.9c0,0,0,0,0,0l0,0c0.2,0,0.3,0.2,0.3,0.3
		C2.7,3.4,2.6,3.5,2.4,3.5C2.4,3.5,2.4,3.5,2.4,3.5z"/>
	<path class="st1" d="M2.4,6.3C2.2,6.3,2,6.1,2,5.9c0-0.2,0.2-0.3,0.3-0.3l0,0c0.2,0,0.3,0.2,0.3,0.3C2.7,6.1,2.6,6.3,2.4,6.3
		C2.4,6.3,2.4,6.3,2.4,6.3z"/>
	<path class="st5" d="M5.4,1.5c-0.2,0-0.3-0.2-0.3-0.3c0-0.2,0.2-0.3,0.3-0.3l0,0c0.2,0,0.3,0.2,0.3,0.3C5.8,1.4,5.6,1.5,5.4,1.5z"
		/>
	<path class="st5" d="M5.4,4.2c-0.2,0-0.3-0.2-0.3-0.3c0-0.2,0.2-0.3,0.3-0.3c0,0,0,0,0,0l0,0c0.2,0,0.3,0.2,0.3,0.3
		C5.8,4.1,5.6,4.2,5.4,4.2C5.4,4.2,5.4,4.2,5.4,4.2z"/>
	<path class="st5" d="M5.4,6.9c-0.2,0-0.3-0.2-0.3-0.3c0-0.2,0.2-0.3,0.3-0.3c0,0,0,0,0,0l0,0c0.2,0,0.3,0.2,0.3,0.3
		C5.8,6.8,5.6,6.9,5.4,6.9C5.4,6.9,5.4,6.9,5.4,6.9z"/>
	<path class="st1" d="M5.4,2.9c-0.2,0-0.3-0.2-0.3-0.3c0-0.2,0.2-0.3,0.3-0.3l0,0c0.2,0,0.3,0.2,0.3,0.3C5.8,2.7,5.6,2.9,5.4,2.9
		C5.4,2.9,5.4,2.9,5.4,2.9z"/>
	<path class="st1" d="M5.4,5.6c-0.2,0-0.3-0.2-0.3-0.3c0-0.2,0.2-0.3,0.3-0.3c0,0,0,0,0,0l0,0c0.2,0,0.3,0.2,0.3,0.3
		C5.8,5.4,5.6,5.6,5.4,5.6C5.4,5.6,5.4,5.6,5.4,5.6z"/>
	<path class="st1" d="M4.4,2.2C4.2,2.2,4.1,2,4.1,1.9c0-0.2,0.2-0.3,0.3-0.3l0,0c0.2,0,0.3,0.2,0.3,0.3C4.8,2,4.6,2.2,4.4,2.2z"/>
	<path class="st1" d="M4.4,4.9c-0.2,0-0.3-0.2-0.3-0.3c0-0.2,0.2-0.3,0.3-0.3c0,0,0,0,0,0l0,0c0.2,0,0.3,0.2,0.3,0.3
		C4.8,4.7,4.6,4.9,4.4,4.9C4.4,4.9,4.4,4.9,4.4,4.9z"/>
	<path class="st5" d="M4.4,3.5c-0.2,0-0.3-0.2-0.3-0.3c0-0.2,0.2-0.3,0.3-0.3c0,0,0,0,0,0l0,0c0.2,0,0.3,0.2,0.3,0.3
		C4.8,3.4,4.6,3.5,4.4,3.5C4.4,3.5,4.4,3.5,4.4,3.5z"/>
	<path class="st5" d="M4.4,6.3c-0.2,0-0.3-0.2-0.3-0.3c0-0.2,0.2-0.3,0.3-0.3l0,0c0.2,0,0.3,0.2,0.3,0.3C4.8,6.1,4.6,6.3,4.4,6.3
		C4.4,6.3,4.4,6.3,4.4,6.3z"/>
	<path class="st1" d="M7.5,1.5c-0.2,0-0.3-0.2-0.3-0.3c0-0.2,0.2-0.3,0.3-0.3l0,0c0.2,0,0.3,0.2,0.3,0.3C7.8,1.4,7.6,1.5,7.5,1.5z"
		/>
	<path class="st1" d="M7.5,4.2c-0.2,0-0.3-0.2-0.3-0.3c0-0.2,0.2-0.3,0.3-0.3c0,0,0,0,0,0l0,0c0.2,0,0.3,0.2,0.3,0.3
		C7.8,4.1,7.7,4.2,7.5,4.2C7.5,4.2,7.5,4.2,7.5,4.2z"/>
	<path class="st1" d="M7.5,6.9c-0.2,0-0.3-0.2-0.3-0.3c0-0.2,0.2-0.3,0.3-0.3c0,0,0,0,0,0l0,0c0.2,0,0.3,0.2,0.3,0.3
		C7.8,6.8,7.7,6.9,7.5,6.9C7.5,6.9,7.5,6.9,7.5,6.9z"/>
	<path class="st5" d="M7.5,2.9c-0.2,0-0.3-0.2-0.3-0.3c0-0.2,0.2-0.3,0.3-0.3l0,0c0.2,0,0.3,0.2,0.3,0.3C7.8,2.7,7.7,2.9,7.5,2.9
		C7.5,2.9,7.5,2.9,7.5,2.9z"/>
	<path class="st5" d="M7.5,5.6c-0.2,0-0.3-0.2-0.3-0.3c0-0.2,0.2-0.3,0.3-0.3c0,0,0,0,0,0l0,0c0.2,0,0.3,0.2,0.3,0.3
		C7.8,5.4,7.7,5.6,7.5,5.6C7.5,5.6,7.5,5.6,7.5,5.6z"/>
	<path class="st5" d="M6.4,2.2C6.3,2.2,6.1,2,6.1,1.9c0-0.2,0.2-0.3,0.3-0.3l0,0c0.2,0,0.3,0.2,0.3,0.3C6.8,2,6.6,2.2,6.4,2.2z"/>
	<path class="st5" d="M6.4,4.9c-0.2,0-0.3-0.2-0.3-0.3c0-0.2,0.2-0.3,0.3-0.3c0,0,0,0,0,0l0,0c0.2,0,0.3,0.2,0.3,0.3
		C6.8,4.7,6.6,4.9,6.4,4.9C6.4,4.9,6.4,4.9,6.4,4.9z"/>
	<path class="st1" d="M6.4,3.5c-0.2,0-0.3-0.2-0.3-0.3c0-0.2,0.2-0.3,0.3-0.3c0,0,0,0,0,0l0,0c0.2,0,0.3,0.2,0.3,0.3
		C6.8,3.4,6.6,3.5,6.4,3.5C6.4,3.5,6.4,3.5,6.4,3.5z"/>
	<path class="st1" d="M6.4,6.3c-0.2,0-0.3-0.2-0.3-0.3c0-0.2,0.2-0.3,0.3-0.3l0,0c0.2,0,0.3,0.2,0.3,0.3C6.8,6.1,6.6,6.3,6.4,6.3
		C6.4,6.3,6.4,6.3,6.4,6.3z"/>
	<path class="st1" d="M8.5,2.2C8.3,2.2,8.1,2,8.1,1.9c0-0.2,0.2-0.3,0.3-0.3l0,0c0.2,0,0.3,0.2,0.3,0.3C8.8,2,8.7,2.2,8.5,2.2z"/>
	<path class="st1" d="M8.5,4.9c-0.2,0-0.3-0.2-0.3-0.3c0-0.2,0.2-0.3,0.3-0.3l0,0c0.2,0,0.3,0.2,0.3,0.3C8.8,4.7,8.7,4.9,8.5,4.9
		C8.5,4.9,8.5,4.9,8.5,4.9z"/>
	<path class="st5" d="M8.5,3.5c-0.2,0-0.3-0.2-0.3-0.3c0-0.2,0.2-0.3,0.3-0.3l0,0c0.2,0,0.3,0.2,0.3,0.3C8.8,3.4,8.7,3.5,8.5,3.5
		C8.5,3.5,8.5,3.5,8.5,3.5z"/>
	<path class="st5" d="M8.5,6.3c-0.2,0-0.3-0.2-0.3-0.3c0-0.2,0.2-0.3,0.3-0.3l0,0c0.2,0,0.3,0.2,0.3,0.3C8.8,6.1,8.7,6.3,8.5,6.3
		C8.5,6.3,8.5,6.3,8.5,6.3z"/>
	<path class="st1" d="M0.1,11.1l0.7,0.6H21V9.7H0.7L0.1,11.1z"/>
	<path class="st6" d="M0,9.7v1.9h0.8c-0.1-0.2-0.2-0.5-0.2-0.8V9.7H0z"/>
</g>
</svg>
