<svg xmlns="http://www.w3.org/2000/svg" width="21.027" height="13.565" viewBox="0 0 21.027 13.565"><g transform="translate(0)"><path d="M28.979,90.839h-9.5L9,98.094v6.03H28.979l.678-.4v-1.26l-.441-.42v-1.191l.441-.327V98.591l-.4-.38V96.992l.4-.339V94.715l-.4-.351V93.3l.4-.519v-1.26A.678.678,0,0,0,28.979,90.839Z" transform="translate(-8.631 -90.839)" fill="#e5646e"/><path d="M256.333,138.028h10.5v1.938h-10.5Z" transform="translate(-245.806 -136.09)" fill="#f2f2f6"/><path d="M256,232.4l.339,1.938h10.174V232.4Z" transform="translate(-245.487 -226.591)" fill="#f2f2f6"/><path d="M.678,274.454V271L0,271.353v1.938l.287.245v1.273l-.287.42v1.26a.678.678,0,0,0,.678.678h19.67a.678.678,0,0,0,.678-.678H2.713a2.035,2.035,0,0,1-2.035-2.035Z" transform="translate(0 -263.601)" fill="#db4655"/><path d="M16.606,90.839H6.432L6,91.517l.432,7.073H16.606Z" transform="translate(-5.754 -90.839)" fill="#5055a0"/><path d="M.678,90.839A.678.678,0,0,0,0,91.517v7.073H.678Z" transform="translate(0 -90.839)" fill="#3f3f8f"/><path d="M25.156,111.819a.339.339,0,0,1,0-.678h0a.339.339,0,1,1,0,.678Z" transform="translate(-23.796 -110.307)" fill="#fff"/><path d="M25.156,177.884a.339.339,0,1,1,0-.678h0a.339.339,0,1,1,0,.678Z" transform="translate(-23.796 -173.659)" fill="#fff"/><path d="M25.156,243.948a.339.339,0,1,1,0-.678h0a.339.339,0,1,1,0,.678Z" transform="translate(-23.796 -237.01)" fill="#fff"/><path d="M25.156,144.852a.339.339,0,0,1,0-.678h0a.339.339,0,1,1,0,.678Z" transform="translate(-23.796 -141.984)" fill="#f2f2f6"/><path d="M25.156,210.916a.339.339,0,1,1,0-.678h0a.339.339,0,1,1,0,.678Z" transform="translate(-23.796 -205.335)" fill="#f2f2f6"/><path d="M223.349,111.819a.339.339,0,0,1,0-.678h0a.339.339,0,1,1,0,.678Z" transform="translate(-213.85 -110.307)" fill="#fff"/><path d="M223.349,177.884a.339.339,0,1,1,0-.678h0a.339.339,0,1,1,0,.678Z" transform="translate(-213.85 -173.659)" fill="#fff"/><path d="M223.349,243.948a.339.339,0,1,1,0-.678h0a.339.339,0,1,1,0,.678Z" transform="translate(-213.85 -237.01)" fill="#fff"/><g transform="translate(3.054 0.834)"><path d="M223.349,144.852a.339.339,0,1,1,0-.678h0a.339.339,0,1,1,0,.678Z" transform="translate(-216.903 -142.817)" fill="#f2f2f6"/><path d="M223.349,210.916a.339.339,0,1,1,0-.678h0a.339.339,0,1,1,0,.678Z" transform="translate(-216.903 -206.168)" fill="#f2f2f6"/><path d="M74.7,111.819a.339.339,0,0,1,0-.678h0a.339.339,0,1,1,0,.678Z" transform="translate(-74.363 -111.141)" fill="#f2f2f6"/><path d="M74.7,177.884a.339.339,0,0,1,0-.678h0a.339.339,0,1,1,0,.678Z" transform="translate(-74.363 -174.493)" fill="#f2f2f6"/><path d="M74.7,243.948a.339.339,0,0,1,0-.678h0a.339.339,0,1,1,0,.678Z" transform="translate(-74.363 -237.844)" fill="#f2f2f6"/></g><path d="M74.7,144.852a.339.339,0,0,1,0-.678h0a.339.339,0,1,1,0,.678Z" transform="translate(-71.309 -141.984)" fill="#fff"/><path d="M74.7,210.916a.339.339,0,0,1,0-.678h0a.339.339,0,1,1,0,.678Z" transform="translate(-71.309 -205.335)" fill="#fff"/><path d="M49.93,128.335a.339.339,0,0,1,0-.678h0a.339.339,0,1,1,0,.678Z" transform="translate(-47.553 -126.145)" fill="#fff"/><path d="M49.93,194.4a.339.339,0,1,1,0-.678h0a.339.339,0,1,1,0,.678Z" transform="translate(-47.553 -189.497)" fill="#fff"/><path d="M49.93,161.368a.339.339,0,1,1,0-.678h0a.339.339,0,1,1,0,.678Z" transform="translate(-47.553 -157.821)" fill="#f2f2f6"/><path d="M49.93,227.432a.339.339,0,0,1,0-.678h0a.339.339,0,1,1,0,.678Z" transform="translate(-47.553 -221.172)" fill="#f2f2f6"/><path d="M124.253,111.819a.339.339,0,0,1,0-.678h0a.339.339,0,1,1,0,.678Z" transform="translate(-118.824 -110.307)" fill="#fff"/><path d="M124.253,177.884a.339.339,0,1,1,0-.678h0a.339.339,0,1,1,0,.678Z" transform="translate(-118.824 -173.659)" fill="#fff"/><path d="M124.253,243.948a.339.339,0,1,1,0-.678h0a.339.339,0,1,1,0,.678Z" transform="translate(-118.824 -237.01)" fill="#fff"/><path d="M124.253,144.852a.339.339,0,0,1,0-.678h0a.339.339,0,1,1,0,.678Z" transform="translate(-118.824 -141.984)" fill="#f2f2f6"/><path d="M124.253,210.916a.339.339,0,1,1,0-.678h0a.339.339,0,1,1,0,.678Z" transform="translate(-118.824 -205.335)" fill="#f2f2f6"/><path d="M99.478,128.335a.339.339,0,0,1,0-.678h0a.339.339,0,1,1,0,.678Z" transform="translate(-95.066 -126.145)" fill="#f2f2f6"/><path d="M99.478,194.4a.339.339,0,1,1,0-.678h0a.339.339,0,1,1,0,.678Z" transform="translate(-95.066 -189.497)" fill="#f2f2f6"/><path d="M99.478,161.368a.339.339,0,1,1,0-.678h0a.339.339,0,1,1,0,.678Z" transform="translate(-95.066 -157.821)" fill="#fff"/><path d="M99.478,227.432a.339.339,0,0,1,0-.678h0a.339.339,0,1,1,0,.678Z" transform="translate(-95.066 -221.172)" fill="#fff"/><path d="M173.72,111.819a.339.339,0,0,1,0-.678h0a.339.339,0,1,1,0,.678Z" transform="translate(-166.259 -110.307)" fill="#f2f2f6"/><path d="M173.72,177.884a.339.339,0,1,1,0-.678h0a.339.339,0,1,1,0,.678Z" transform="translate(-166.259 -173.659)" fill="#f2f2f6"/><path d="M173.72,243.948a.339.339,0,1,1,0-.678h0a.339.339,0,1,1,0,.678Z" transform="translate(-166.259 -237.01)" fill="#f2f2f6"/><path d="M173.72,144.852a.339.339,0,0,1,0-.678h0a.339.339,0,1,1,0,.678Z" transform="translate(-166.259 -141.984)" fill="#fff"/><path d="M173.72,210.916a.339.339,0,1,1,0-.678h0a.339.339,0,1,1,0,.678Z" transform="translate(-166.259 -205.335)" fill="#fff"/><path d="M148.946,128.335a.339.339,0,0,1,0-.678h0a.339.339,0,1,1,0,.678Z" transform="translate(-142.503 -126.145)" fill="#fff"/><path d="M148.946,194.4a.339.339,0,1,1,0-.678h0a.339.339,0,1,1,0,.678Z" transform="translate(-142.503 -189.497)" fill="#fff"/><path d="M148.946,161.368a.339.339,0,1,1,0-.678h0a.339.339,0,1,1,0,.678Z" transform="translate(-142.503 -157.821)" fill="#f2f2f6"/><path d="M148.946,227.432a.339.339,0,0,1,0-.678h0a.339.339,0,1,1,0,.678Z" transform="translate(-142.503 -221.172)" fill="#f2f2f6"/><path d="M198.575,128.335a.339.339,0,0,1,0-.678h0a.339.339,0,1,1,0,.678Z" transform="translate(-190.093 -126.145)" fill="#f2f2f6"/><path d="M198.575,194.4a.339.339,0,0,1,0-.678h0a.339.339,0,1,1,0,.678Z" transform="translate(-190.093 -189.497)" fill="#f2f2f6"/><path d="M198.575,161.368a.339.339,0,0,1,0-.678h0a.339.339,0,1,1,0,.678Z" transform="translate(-190.093 -157.821)" fill="#fff"/><path d="M198.575,227.432a.339.339,0,0,1,0-.678h0a.339.339,0,1,1,0,.678Z" transform="translate(-190.093 -221.172)" fill="#fff"/><path d="M3,328.161l.709.56H23.9v-1.938H3.555Z" transform="translate(-2.877 -317.093)" fill="#f2f2f6"/><path d="M0,326.782v1.938H.832a2.028,2.028,0,0,1-.154-.775v-1.163H0Z" transform="translate(0 -317.092)" fill="#e1e1e6"/></g></svg>